<svg id="Layer_1" data-name="Layer 1" xmlns="http://www.w3.org/2000/svg" viewBox="0 0 228.72 55.43"><defs><style>.cls-1{fill:#122643;}.cls-2{fill:#ff8d1d;}.cls-3{fill:#ff8e1d;}.cls-4{fill:#fff;}.cls-5{fill:none;stroke:#122643;}</style></defs><title>logo-nubox</title><path class="cls-1" d="M16.38,12.9a16.59,16.59,0,0,1,6.2,1.18,16.08,16.08,0,0,1,5.19,3.3,16.61,16.61,0,0,1,3.57,5,14.72,14.72,0,0,1,1.35,6.27V41.14a4.19,4.19,0,0,1-1.25,3,4.3,4.3,0,0,1-3.07,1.35,4.52,4.52,0,0,1-3.13-1.18,3.82,3.82,0,0,1-1.31-3V29.21a7.62,7.62,0,0,0-.58-2.93,7.05,7.05,0,0,0-1.61-2.39,8.07,8.07,0,0,0-2.43-1.62,7.28,7.28,0,0,0-3-.61,7.19,7.19,0,0,0-2.83.57,8.11,8.11,0,0,0-2.36,1.52A7.19,7.19,0,0,0,9.5,26a6.92,6.92,0,0,0-.6,2.83V41.14a4.16,4.16,0,0,1-1.35,3.07,4.33,4.33,0,0,1-3.1,1.31,4.49,4.49,0,0,1-3.1-1.21,3.85,3.85,0,0,1-1.35-3V29.21a16.93,16.93,0,0,1,1.31-6.33,16.28,16.28,0,0,1,3.44-5.19A16.07,16.07,0,0,1,16.38,12.9Z"/><path class="cls-1" d="M39.23,13a4.54,4.54,0,0,1,4.44,4.51V29.41a7.3,7.3,0,0,0,.61,2.94,7.65,7.65,0,0,0,1.62,2.39,7.88,7.88,0,0,0,2.39,1.62,7.28,7.28,0,0,0,2.93.6,7.54,7.54,0,0,0,2.83-.54,7.81,7.81,0,0,0,2.39-1.48,6.85,6.85,0,0,0,1.66-2.29,7,7,0,0,0,.6-2.9V17.48a3.85,3.85,0,0,1,.68-2.29c.09-.13.19-.27.3-.4s.24-.27.37-.41a3.9,3.9,0,0,1,3-1.34,4.62,4.62,0,0,1,4.52,4.24V29.41a15.89,15.89,0,0,1-1.28,6.34,16.46,16.46,0,0,1-8.7,8.69,15.84,15.84,0,0,1-6.4,1.28A14.28,14.28,0,0,1,45,44.61a16.83,16.83,0,0,1-8.83-8.56,14.56,14.56,0,0,1-1.35-6.17V17.48A4.49,4.49,0,0,1,39.23,13Z"/><path class="cls-1" d="M74.2,2.72A3.4,3.4,0,0,1,75.89,3a5.26,5.26,0,0,1,1.45,1,4.11,4.11,0,0,1,1,1.45,4.51,4.51,0,0,1,.34,1.72v7.75a15.64,15.64,0,0,1,4.89-1.58,16.89,16.89,0,0,1,5,0,17.41,17.41,0,0,1,4.85,1.48,16.91,16.91,0,0,1,4.38,3,16.7,16.7,0,0,1,3.54,5.23,16.14,16.14,0,0,1,1.18,6.36,15.58,15.58,0,0,1-1.31,6.34,17.07,17.07,0,0,1-3.54,5.19,16.44,16.44,0,0,1-5.19,3.5,15.56,15.56,0,0,1-6.27,1.28A15.23,15.23,0,0,1,80,44.41a17.45,17.45,0,0,1-5.22-3.54,17.09,17.09,0,0,1-3.61-5.19,15,15,0,0,1-1.35-6.27V6.83a3.41,3.41,0,0,1,.41-1.58,5,5,0,0,1,1-1.35A4.8,4.8,0,0,1,72.62,3,3.35,3.35,0,0,1,74.2,2.72Zm4.45,26.69a7.3,7.3,0,0,0,.61,2.94,7.41,7.41,0,0,0,1.65,2.39,8.55,8.55,0,0,0,2.39,1.62,7.07,7.07,0,0,0,2.9.6,7.17,7.17,0,0,0,2.87-.6,8.55,8.55,0,0,0,2.42-1.62,7.41,7.41,0,0,0,1.65-2.39,7.37,7.37,0,0,0,0-5.87,7.3,7.3,0,0,0-1.65-2.39,8.55,8.55,0,0,0-2.42-1.62,7.18,7.18,0,0,0-2.87-.61,6.79,6.79,0,0,0-2.9.64,8.57,8.57,0,0,0-2.39,1.69,7.8,7.8,0,0,0-1.65,2.43A7,7,0,0,0,78.65,29.41Z"/><path class="cls-1" d="M120.91,46.41a15.72,15.72,0,0,1-6.27-1.27,16.63,16.63,0,0,1-5.19-3.51,17.19,17.19,0,0,1-3.54-5.19,16.22,16.22,0,0,1,0-12.7,16.8,16.8,0,0,1,3.47-5.16,16.27,16.27,0,0,1,5.16-3.51,16,16,0,0,1,6.4-1.27A16.57,16.57,0,0,1,127.25,15a15.94,15.94,0,0,1,8.69,8.56A16.17,16.17,0,0,1,137.22,30a15.82,15.82,0,0,1-1.25,6.3,16.05,16.05,0,0,1-3.43,5.12A16.86,16.86,0,0,1,127.35,45,17.55,17.55,0,0,1,120.91,46.41Zm0-8.82a7.22,7.22,0,0,0,2.9-.58,7.83,7.83,0,0,0,2.39-1.58A7.44,7.44,0,0,0,128.46,30a7.09,7.09,0,0,0-.61-2.93,7.69,7.69,0,0,0-1.65-2.43A7.87,7.87,0,0,0,123.81,23a6.92,6.92,0,0,0-2.9-.61A7.12,7.12,0,0,0,118,23a7.3,7.3,0,0,0-2.39,1.65A8,8,0,0,0,114,27.11a7.09,7.09,0,0,0-.61,2.93,7.76,7.76,0,0,0,2.23,5.25A7.58,7.58,0,0,0,120.91,37.59Z"/><path class="cls-1" d="M163.64,14.38a4.06,4.06,0,0,1,3-1.25,4.53,4.53,0,0,1,3.07,1.32,4.15,4.15,0,0,1,1.21,3,4.36,4.36,0,0,1-1.21,3.1l-8.77,8.83,8.77,8.83A4.46,4.46,0,0,1,171,41.31a4.26,4.26,0,0,1-4.35,4.41,4.27,4.27,0,0,1-3.2-1.41l-8.76-8.63-8.76,8.83a5,5,0,0,1-3,1.21,3.9,3.9,0,0,1-3.17-1.21,4.5,4.5,0,0,1-1.31-3,4,4,0,0,1,1.18-3.13l9-9-9-9a3.61,3.61,0,0,1-1.15-3,5.26,5.26,0,0,1,1.28-3,4,4,0,0,1,3.17-1.35,5.07,5.07,0,0,1,3,1.35l8.76,8.76Z"/><path class="cls-1" d="M225.66,0V35.93A12.46,12.46,0,0,1,213.2,48.39H177.27V12.59h0v-.13A12.46,12.46,0,0,1,189.74,0Z"/><path class="cls-2" d="M193.46,37.6a1.08,1.08,0,0,1,1.09-1.08h14a1.08,1.08,0,0,1,1.08,1.08h0a1.09,1.09,0,0,1-1.08,1.09h-14a1.09,1.09,0,0,1-1.09-1.09Z"/><path class="cls-2" d="M194.74,33.41a1.08,1.08,0,0,1,1.08-1.08h11.43a1.08,1.08,0,0,1,1.08,1.08h0a1.08,1.08,0,0,1-1.08,1.09H195.82a1.09,1.09,0,0,1-1.08-1.09Z"/><path class="cls-3" d="M196,29.22a1.08,1.08,0,0,1,1.08-1.08H206a1.08,1.08,0,0,1,1.08,1.08h0A1.08,1.08,0,0,1,206,30.31H197.1A1.08,1.08,0,0,1,196,29.22Z"/><path class="cls-4" d="M219.33,23.16a3,3,0,0,0-3-2.95,3,3,0,0,0-1.23.26h-.07a4.33,4.33,0,0,0-7.8-3.53,7.48,7.48,0,1,0-14.78,1.92l-.05,0a4.44,4.44,0,1,0-4.23,7.2,3.48,3.48,0,0,0,.6.07h27.23a2.68,2.68,0,0,0,.89-.05A2.94,2.94,0,0,0,219.33,23.16Z"/><path class="cls-1" d="M222.89,48.82a8.47,8.47,0,0,1,1.22-.1,2.05,2.05,0,0,1,1.43.41,1.22,1.22,0,0,1,.39.94,1.31,1.31,0,0,1-.92,1.26v0a1.24,1.24,0,0,1,.72,1,7.86,7.86,0,0,0,.38,1.35h-.66a6.42,6.42,0,0,1-.33-1.18c-.14-.68-.41-.94-1-1h-.6V53.7h-.64Zm.64,2.26h.65c.68,0,1.11-.38,1.11-.94s-.46-.92-1.13-.92a2.76,2.76,0,0,0-.63.05Z"/><circle class="cls-5" cx="224.5" cy="51.21" r="3.72"/></svg>