<?xml version="1.0" encoding="utf-8"?>
<!-- Generator: Adobe Illustrator 21.1.0, SVG Export Plug-In . SVG Version: 6.00 Build 0)  -->
<svg version="1.1" id="nx-scrollbar-x" xmlns="http://www.w3.org/2000/svg" xmlns:xlink="http://www.w3.org/1999/xlink" x="0px"
	 y="0px" viewBox="0 0 35 67" style="enable-background:new 0 0 35 67;" xml:space="preserve">
<style type="text/css">
	.st0{fill:#AAAAAA;}
	.st1{fill:#EFEFEF;}
	.st2{fill:#919191;}
</style>
<g>
	<g>
		<path class="st0" d="M0,48V36c0-1.1,0.9-2,2-2h31c1.1,0,2,0.9,2,2v12c0,1.1-0.9,2-2,2H2C0.9,50,0,49.1,0,48z"/>
		<path class="st1" d="M1,48V36c0-0.5,0.5-1,1-1h31c0.5,0,1,0.5,1,1v12c0,0.5-0.5,1-1,1H2C1.5,49,1,48.5,1,48z"/>
	</g>
	<g>
		<rect x="18" y="51" class="st1" width="17" height="16"/>
		<g id="Flecha_2_">
			<polygon class="st2" points="23.4,55.2 27.2,59 23.4,62.8 24.6,64 29.6,59 24.6,54 			"/>
		</g>
	</g>
	<g>
		<g id="Barra_1_">
			<rect y="18" class="st1" width="35" height="14"/>
		</g>
		<g>
			<rect y="17" class="st0" width="35" height="1"/>
		</g>
		<g>
			<rect y="32" class="st0" width="35" height="1"/>
		</g>
	</g>
	<g id="Barra_3_">
		<rect class="st1" width="35" height="17"/>
	</g>
	<g>
		<rect y="51" class="st1" width="17" height="16"/>
		<g id="Flecha_1_">
			<polygon class="st2" points="11.6,62.8 7.8,59 11.6,55.2 10.4,54 5.4,59 10.4,64 			"/>
		</g>
	</g>
</g>
</svg>
