<?xml version="1.0" encoding="utf-8"?>
<!-- Generator: Adobe Illustrator 21.1.0, SVG Export Plug-In . SVG Version: 6.00 Build 0)  -->
<svg version="1.1" id="nbx-scrollbar-y" xmlns="http://www.w3.org/2000/svg" xmlns:xlink="http://www.w3.org/1999/xlink" x="0px"
	 y="0px" viewBox="0 0 67 35" style="enable-background:new 0 0 67 35;" xml:space="preserve">
<style type="text/css">
	.st0{fill:#AAAAAA;}
	.st1{fill:#EFEFEF;}
	.st2{fill:#919191;}
</style>
<g>
	<g>
		<path class="st0" d="M48,35H36c-1.1,0-2-0.9-2-2V2c0-1.1,0.9-2,2-2h12c1.1,0,2,0.9,2,2v31C50,34.1,49.1,35,48,35z"/>
		<path class="st1" d="M48,34H36c-0.5,0-1-0.5-1-1V2c0-0.5,0.5-1,1-1h12c0.5,0,1,0.5,1,1v31C49,33.5,48.5,34,48,34z"/>
	</g>
	<g>
		<rect x="51" class="st1" width="16" height="17"/>
		<g id="Flecha">
			<polygon class="st2" points="55.2,11.6 59,7.8 62.8,11.6 64,10.4 59,5.4 54,10.4 			"/>
		</g>
	</g>
	<g>
		<g id="Barra_1_">
			<rect x="18" class="st1" width="14" height="35"/>
		</g>
		<g>
			<rect x="17" class="st0" width="1" height="35"/>
		</g>
		<g>
			<rect x="32" class="st0" width="1" height="35"/>
		</g>
	</g>
	<g id="Barra_3_">
		<rect class="st1" width="17" height="35"/>
	</g>
	<g>
		<rect x="51" y="18" class="st1" width="16" height="17"/>
		<g id="Flecha_1_">
			<polygon class="st2" points="62.8,23.4 59,27.2 55.2,23.4 54,24.6 59,29.6 64,24.6 			"/>
		</g>
	</g>
</g>
</svg>
