<?xml version="1.0" standalone="no"?>
<!DOCTYPE svg PUBLIC "-//W3C//DTD SVG 1.1//EN" "http://www.w3.org/Graphics/SVG/1.1/DTD/svg11.dtd" >
<svg xmlns="http://www.w3.org/2000/svg">
<metadata>Nubox Font</metadata>
<defs>
<font id="Nubox" horiz-adv-x="1024">
<font-face units-per-em="1024" ascent="960" descent="-64" />
<missing-glyph horiz-adv-x="1024" />
<glyph unicode="&#x20;" horiz-adv-x="512" d="" />
<glyph unicode="&#xe900;" glyph-name="logo" d="M94.464 515.371c12.459 0 24.363-2.347 35.755-6.997 11.392-4.693 21.376-11.221 29.952-19.669 8.533-8.405 15.403-18.389 20.608-29.867 5.163-11.477 7.765-23.936 7.765-37.291v-74.197c0-6.955-2.389-12.971-7.211-18.048-4.779-5.077-10.667-7.765-17.664-8.021-6.997 0-13.013 2.347-18.091 6.997-5.035 4.693-7.595 10.624-7.595 17.835v72.192c0 6.144-1.109 11.947-3.285 17.451-2.219 5.461-5.333 10.24-9.344 14.251s-8.704 7.211-13.995 9.643c-5.333 2.389-11.093 3.627-17.28 3.627-5.717 0-11.136-1.152-16.341-3.413s-9.728-5.291-13.611-9.003c-3.883-3.755-6.997-8.277-9.344-13.653-2.347-5.333-3.499-10.965-3.499-16.853v-73.003c0-6.955-2.603-13.013-7.765-18.261-5.205-5.205-11.136-7.808-17.877-7.808s-12.715 2.389-17.877 7.211c-5.163 4.821-7.765 10.709-7.765 17.664v72.192c0.256 13.355 2.773 25.941 7.595 37.717 4.779 11.776 11.392 22.059 19.84 30.891 8.405 8.832 18.347 15.787 29.739 20.864 11.392 5.035 23.808 7.552 37.291 7.552zM237.909 514.56c6.741 0 12.715-2.603 17.877-7.808s7.765-11.563 7.765-19.072v-70.571c0-6.144 1.152-11.989 3.499-17.451 2.347-5.504 5.461-10.24 9.344-14.251s8.491-7.211 13.781-9.643c5.291-2.389 10.965-3.627 16.896-3.627 5.675 0 11.136 1.067 16.341 3.2 5.163 2.133 9.771 5.077 13.781 8.832s7.211 8.277 9.515 13.653c2.347 5.333 3.499 11.093 3.499 17.237v73.045c0 6.699 2.475 12.715 7.381 18.048s10.88 8.149 17.877 8.405c6.997 0 13.013-2.603 18.091-7.808 5.035-5.205 7.723-11.051 7.979-17.451v-72.192c0-13.355-2.475-25.941-7.381-37.717s-11.648-22.059-20.224-30.891c-8.533-8.832-18.517-15.787-29.952-20.864-11.392-5.077-23.723-7.637-36.949-7.637-12.459-0.555-24.363 1.664-35.755 6.613s-21.461 11.776-30.123 20.437c-8.704 8.661-15.616 18.859-20.821 30.464s-7.765 23.851-7.765 36.693v73.899c0 6.955 2.389 13.013 7.211 18.261 4.864 5.205 10.88 7.936 18.133 8.192zM451.328 575.915c3.371 0.256 6.613-0.341 9.728-1.792 3.115-1.493 5.888-3.413 8.363-5.803s4.352-5.291 5.632-8.619c1.28-3.328 1.963-6.741 1.963-10.24v-46.123c9.088 4.821 18.475 7.936 28.203 9.429 9.728 1.451 19.371 1.451 28.971 0 9.6-1.493 18.901-4.395 27.989-8.832 9.088-4.395 17.493-10.368 25.259-17.835 9.088-9.643 15.872-20.011 20.395-31.061 4.523-11.093 6.784-23.723 6.784-37.888 0-13.355-2.517-25.941-7.595-37.717-5.035-11.776-11.861-22.059-20.395-30.891s-18.517-15.787-29.952-20.864c-11.392-5.077-23.467-7.637-36.139-7.637-12.459 0-24.363 2.603-35.755 7.808s-21.461 12.245-30.123 21.035c-8.704 8.832-15.616 19.115-20.821 30.891s-7.765 24.192-7.765 37.291v134.4c0 3.2 0.768 6.357 2.347 9.429s3.499 5.76 5.845 8.021c2.347 2.261 4.992 4.053 7.979 5.419 2.944 1.323 6.016 1.877 9.088 1.579zM477.013 417.109c0-6.144 1.152-11.989 3.499-17.451 2.347-5.504 5.504-10.24 9.515-14.251s8.619-7.211 13.781-9.643c5.163-2.389 10.752-3.627 16.725-3.627 5.675 0 11.221 1.195 16.512 3.627 5.291 2.389 9.984 5.632 13.995 9.643s7.211 8.747 9.515 14.251c2.347 5.461 3.499 11.307 3.499 17.451s-1.152 11.947-3.499 17.451c-2.347 5.461-5.504 10.24-9.515 14.251s-8.704 7.211-13.995 9.643c-5.333 2.389-10.837 3.627-16.512 3.627-5.973 0-11.52-1.28-16.725-3.797-5.205-2.56-9.771-5.888-13.781-10.027s-7.211-8.96-9.515-14.421c-2.347-5.547-3.499-11.093-3.499-16.725zM723.456 514.56c12.715 0 24.747-2.56 36.139-7.637s21.376-12.032 29.952-20.864c8.533-8.832 15.36-19.115 20.395-30.891s7.595-24.448 7.595-38.101c0-13.355-2.475-25.856-7.381-37.504s-11.605-21.845-20.011-30.677c-8.448-8.832-18.347-15.787-29.739-20.864s-23.723-7.637-36.949-7.637c-12.971 0-25.131 2.389-36.523 7.211s-21.376 11.563-29.952 20.267c-8.533 8.704-15.317 18.901-20.224 30.677s-7.381 24.576-7.381 38.485c0 13.355 2.389 25.856 7.211 37.504 4.779 11.648 11.392 21.803 19.84 30.464 8.405 8.704 18.389 15.659 29.952 20.864 11.52 5.333 23.893 8.192 37.077 8.704zM723.456 462.037c-5.973 0-11.52-1.152-16.725-3.413-5.163-2.261-9.771-5.419-13.781-9.429s-7.211-8.747-9.515-14.251c-2.347-5.504-3.499-11.435-3.499-17.835 0-6.144 1.152-11.989 3.499-17.451 2.347-5.504 5.504-10.283 9.515-14.421s8.619-7.424 13.781-9.813c5.205-2.389 10.752-3.627 16.725-3.627s11.605 1.195 16.896 3.627c5.291 2.389 9.899 5.675 13.781 9.813s6.997 8.96 9.344 14.421c2.347 5.461 3.499 11.307 3.499 17.451-0.512 12.288-4.821 22.699-12.843 31.275-7.979 8.576-18.219 13.141-30.677 13.653zM981.589 506.539c4.907 5.077 10.709 7.552 17.323 7.424s12.501-2.731 17.664-7.808c4.651-4.821 6.997-10.837 6.997-18.048s-2.347-13.355-6.997-18.432l-50.56-52.523 50.56-52.523c4.651-4.821 7.125-10.88 7.381-18.261 0.256-7.339-2.219-13.696-7.381-19.072-4.651-4.821-10.539-7.211-17.664-7.211s-13.269 2.816-18.475 8.405l-50.56 51.328-50.56-52.523c-4.651-4.267-10.496-6.699-17.493-7.211-6.997-0.555-13.099 1.877-18.261 7.211-4.651 4.821-7.211 10.752-7.595 17.835s1.877 13.312 6.784 18.645l51.712 53.333-51.712 53.333c-4.907 5.077-7.125 10.965-6.613 17.664s2.987 12.715 7.381 18.048c5.717 5.888 11.776 8.576 18.261 8.021s12.288-3.2 17.493-8.021l50.56-52.139 51.755 52.523z" />
<glyph unicode="&#xe901;" glyph-name="ruta" d="M853.333 337.067l-273.067-273.067-64 64 162.133 162.133h-507.733v541.867h89.6v-452.267h418.133l-162.133 162.133 64 64 273.067-268.8z" />
<glyph unicode="&#xe902;" glyph-name="limpiar" d="M76.8 960c-42.411 0-76.8-34.389-76.8-76.8s34.389-76.8 76.8-76.8 76.8 34.389 76.8 76.8-34.389 76.8-76.8 76.8zM937.6 944l-171.221-342.4c-56.491 25.344-129.963 13.611-176-52.821l-6.4 3.2c-39.851-86.016-136.192-148.48-232.021-185.6-47.915-18.56-95.829-31.104-132.821-38.4s-71.083-7.381-65.536-7.979l-55.979 6.4v-81.579l12.8-14.379c247.125-285.653 625.579-294.443 625.579-294.443h20.779l16 14.379c0 0 158.549 151.552 193.621 385.621h1.621c25.6 112.64-5.76 179.2-67.2 204.8-0.896 0.896-5.76 3.456-8.021 4.821l131.2 358.4-86.4 39.979zM307.2 908.8c-28.288 0-51.2-22.912-51.2-51.2s22.912-51.2 51.2-51.2 51.2 22.912 51.2 51.2-22.912 51.2-51.2 51.2zM204.8 704c-56.533 0-102.4-45.867-102.4-102.4s45.867-102.4 102.4-102.4 102.4 45.867 102.4 102.4-45.867 102.4-102.4 102.4zM656 470.4l211.2-91.179c-17.109-189.824-129.877-312.704-151.979-336-11.221 0.64-45.909 3.883-92.8 14.379 38.187 42.88 98.56 123.733 129.621 227.2-91.947-106.667-189.44-167.296-238.379-193.579-29.909 10.923-60.203 23.509-92.8 40.021 32.469 27.861 82.304 75.179 112 128-38.101-41.6-118.528-78.080-168.021-97.621-33.835 20.437-67.541 43.989-100.821 72.021 38.059 8.533 79.019 19.072 124.8 36.779 97.28 37.675 204.416 99.072 267.179 199.979z" />
<glyph unicode="&#xe903;" glyph-name="menu" d="M128 192h768v85.333h-768v-85.333zM128 405.333h768v85.333h-768v-85.333zM128 704v-85.333h768v85.333h-768z" />
<glyph unicode="&#xe904;" glyph-name="cerrar" d="M768 652.8l-51.2 51.2-204.8-204.8-204.8 204.8-51.2-51.2 204.8-204.8-204.8-204.8 51.2-51.2 204.8 204.8 204.8-204.8 51.2 51.2-204.8 204.8 204.8 204.8z" />
<glyph unicode="&#xe905;" glyph-name="notificaciones" d="M512 21.333c46.933 0 85.333 38.4 85.333 89.6h-170.667c0-51.2 38.4-89.6 85.333-89.6zM768 285.867v217.6c0 132.267-68.267 247.467-192 277.333v29.867c0 34.133-29.867 64-64 64s-64-29.867-64-64v-29.867c-123.733-29.867-192-145.067-192-277.333v-217.6l-85.333-89.6v-42.667h682.667v42.667l-85.333 89.6z" />
<glyph unicode="&#xe906;" glyph-name="accesos-directos" d="M512 213.333l238.933-149.333-64 285.867 209.067 187.733-277.333 25.6-106.667 268.8-106.667-268.8-277.333-25.6 209.067-192-64-281.6 238.933 149.333z" />
<glyph unicode="&#xe907;" glyph-name="historial" d="M576 832c-213.333 0-384-170.667-384-384h-128l170.667-170.667 170.667 170.667h-128c0 166.4 132.267 298.667 298.667 302.933s298.667-132.267 302.933-298.667-132.267-298.667-298.667-302.933c-81.067 0-157.867 29.867-213.333 89.6l-59.733-59.733c149.333-149.333 392.533-149.333 541.867 0s149.333 392.533 0 541.867c-72.533 72.533-170.667 110.933-273.067 110.933zM533.333 618.667v-213.333l183.467-106.667 29.867 51.2-149.333 89.6v179.2h-64z" />
<glyph unicode="&#xe908;" glyph-name="asistente" d="M512 832c-213.333 0-384-170.667-384-384s170.667-384 384-384 384 170.667 384 384-170.667 384-384 384zM550.4 179.2h-76.8v76.8h76.8v-76.8zM631.467 477.867l-34.133-38.4c-29.867-25.6-46.933-68.267-46.933-106.667h-76.8v17.067c0 42.667 17.067 81.067 46.933 110.933l46.933 46.933c12.8 12.8 21.333 34.133 21.333 55.467 0 42.667-34.133 76.8-76.8 76.8s-76.8-34.133-76.8-76.8c0 0 0 0 0 0h-76.8c0 85.333 68.267 153.6 153.6 153.6s153.6-68.267 153.6-153.6c0-34.133-12.8-64-34.133-85.333z" />
<glyph unicode="&#xe909;" glyph-name="chat" d="M769.067 159.232c78.805 32.128 140.971 75.904 186.539 131.243 45.611 55.339 68.395 115.627 68.395 180.821s-22.784 125.483-68.352 180.864c-45.568 55.339-107.776 99.115-186.539 131.243-78.805 32.128-164.523 48.213-257.109 48.213s-178.304-16.085-257.067-48.213c-78.805-32.128-141.013-75.861-186.581-131.243-45.568-55.339-68.352-115.627-68.352-180.864 0-55.808 17.195-108.373 51.627-157.611 34.432-49.28 81.707-90.795 141.824-124.544-4.864-11.264-9.813-21.589-14.891-30.976s-11.136-18.432-18.176-27.093c-7.040-8.661-12.501-15.488-16.384-20.395s-10.197-11.861-18.901-20.779c-8.747-8.917-14.293-14.763-16.725-17.579l-2.901-3.157-3.285-3.499-2.901-3.499-2.56-3.883-1.835-3.499c-0.725-1.408-1.195-2.816-1.451-4.224s-0.384-2.944-0.384-4.565c0-1.664 0.256-3.157 0.725-4.565 0.981-6.101 3.755-11.008 8.363-14.763s9.557-5.632 14.891-5.632h2.176c24.235 3.285 45.099 7.040 62.549 11.264 74.667 18.773 142.080 48.811 202.197 90.069 43.648-7.509 86.315-11.264 128-11.264 92.629-0.085 178.347 16 257.109 48.128zM216.533 388.352c-47.488 0-85.931 36.949-85.931 82.56s38.485 82.56 85.931 82.56c47.488 0 85.931-36.949 85.931-82.56s-38.443-82.56-85.931-82.56zM786.987 553.472c47.488 0 85.931-36.949 85.931-82.56s-38.485-82.56-85.931-82.56c-47.445 0-85.931 36.949-85.931 82.56s38.485 82.56 85.931 82.56zM415.829 470.912c0 45.611 38.485 82.56 85.931 82.56 47.488 0 85.931-36.949 85.931-82.56s-38.485-82.56-85.931-82.56c-47.445 0-85.931 36.949-85.931 82.56z" />
<glyph unicode="&#xe90a;" glyph-name="dropdown" d="M806.4 682.667l-294.4-290.133-294.4 290.133-89.6-89.6 384-379.733 384 379.733-89.6 89.6z" />
<glyph unicode="&#xe90b;" glyph-name="breadcrumb" d="M277.333 742.4l290.133-294.4-290.133-294.4 89.6-89.6 379.733 384-379.733 384-89.6-89.6z" />
<glyph unicode="&#xe90c;" glyph-name="mas" d="M896 524.8h-307.2v307.2h-153.6v-307.2h-307.2v-153.6h307.2v-307.2h153.6v307.2h307.2z" />
<glyph unicode="&#xe90d;" glyph-name="menos" d="M128 533.333h768v-170.667h-768v170.667z" />
<glyph unicode="&#xe90e;" glyph-name="info" d="M511.957 960c-282.709 0-511.957-229.248-511.957-511.957s229.248-512.043 511.957-512.043 512.043 229.291 512.043 512.043-229.291 511.957-512.043 511.957zM618.581 166.485c-26.368-10.411-47.317-18.304-63.061-23.765-15.701-5.461-33.92-8.192-54.699-8.192-31.915 0-56.747 7.808-74.411 23.381s-26.496 35.285-26.496 59.264c0 9.301 0.64 18.859 1.963 28.544 1.323 9.728 3.456 20.651 6.357 32.896l32.981 116.523c2.901 11.179 5.419 21.803 7.424 31.701 2.005 9.984 2.944 19.115 2.944 27.435 0 14.805-3.072 25.216-9.173 31.061-6.187 5.845-17.877 8.704-35.243 8.704-8.491 0-17.237-1.237-26.24-3.883-8.875-2.731-16.597-5.205-22.912-7.637l8.704 35.883c21.589 8.789 42.24 16.341 61.995 22.571 19.712 6.315 38.357 9.429 55.893 9.429 31.701 0 56.149-7.723 73.344-22.955 17.109-15.317 25.728-35.2 25.728-59.648 0-5.077-0.597-13.995-1.792-26.752-1.152-12.8-3.371-24.448-6.571-35.157l-32.811-116.181c-2.688-9.301-5.077-19.968-7.253-31.915-2.133-11.904-3.157-21.035-3.157-27.136 0-15.445 3.413-25.984 10.368-31.573 6.869-5.589 18.859-8.405 35.84-8.405 8.021 0 16.981 1.451 27.136 4.224 10.069 2.773 17.323 5.248 21.931 7.381l-8.789-35.797zM612.736 637.995c-15.317-14.208-33.707-21.333-55.253-21.333-21.504 0-40.064 7.125-55.467 21.333-15.36 14.208-23.083 31.531-23.083 51.712 0 20.139 7.808 37.504 23.083 51.84 15.445 14.379 33.963 21.547 55.467 21.547 21.547 0 40.021-7.168 55.253-21.547 15.317-14.336 22.997-31.701 22.997-51.84 0-20.224-7.68-37.504-22.997-51.712z" />
<glyph unicode="&#xe90f;" glyph-name="reportes" d="M550.4 563.2h204.8l-204.8 213.333v-213.333zM290.133 832h298.667l221.867-230.4v-460.8c0-42.667-34.133-76.8-76.8-76.8h-443.733c-42.667 0-76.8 34.133-76.8 76.8 0 0 0 0 0 0v614.4c0 42.667 34.133 76.8 76.8 76.8-4.267 0-4.267 0 0 0zM324.267 140.8h76.8v230.4h-76.8v-230.4zM473.6 140.8h76.8v307.2h-76.8v-307.2zM622.933 140.8h76.8v153.6h-76.8v-153.6z" />
<glyph unicode="&#xe910;" glyph-name="administracion" d="M563.2 648.533l-21.333-21.333h-379.733c-17.067 0-34.133-12.8-34.133-34.133 0 0 0 0 0 0v-494.933c0-17.067 17.067-34.133 34.133-34.133 0 0 0 0 0 0h375.467c21.333 0 42.667 8.533 59.733 25.6l68.267 68.267c17.067 17.067 25.6 38.4 25.6 59.733v260.267l106.667 106.667-153.6 153.6-81.067-89.6zM529.067 260.267v0c-17.067 0-34.133-12.8-34.133-34.133v-93.867h-298.667v426.667h290.133l-140.8-140.8v-136.533h136.533l140.8 140.8v-162.133h-93.867zM388.267 371.2v38.4l34.133 34.133 85.333-85.333-34.133-34.133h-38.4v46.933h-46.933zM635.733 213.333c0-4.267-4.267-8.533-8.533-17.067l-68.267-68.267c-4.267-4.267-8.533-8.533-17.067-8.533v89.6h93.867zM669.867 661.333c8.533-8.533 8.533-21.333 0-29.867l-179.2-179.2c-8.533-8.533-21.333-8.533-29.867 0s-8.533 21.333 0 29.867c0 0 0 0 0 0l179.2 179.2c8.533 8.533 21.333 8.533 29.867 0 0 0 0 0 0 0zM896 699.733c0-12.8-4.267-25.6-12.8-34.133l-59.733-59.733-153.6 153.6 59.733 59.733c8.533 8.533 21.333 12.8 34.133 12.8s25.6-4.267 34.133-12.8l85.333-85.333c8.533-12.8 12.8-21.333 12.8-34.133z" />
<glyph unicode="&#xe911;" glyph-name="configuracion" d="M896 388.267v119.467l-110.933 17.067c-4.267 21.333-12.8 38.4-25.6 59.733l64 93.867-85.333 85.333-93.867-68.267c-17.067 8.533-38.4 17.067-59.733 25.6l-12.8 110.933h-119.467l-17.067-110.933c-21.333-8.533-42.667-12.8-59.733-25.6l-93.867 68.267-85.333-85.333 64-93.867c-8.533-17.067-17.067-38.4-25.6-59.733l-106.667-17.067v-119.467l110.933-21.333c4.267-21.333 12.8-38.4 25.6-59.733l-64-93.867 85.333-85.333 93.867 64c17.067-8.533 38.4-17.067 59.733-25.6l17.067-110.933h119.467l21.333 110.933c21.333 4.267 38.4 12.8 59.733 25.6l93.867-64 85.333 85.333-68.267 93.867c8.533 17.067 17.067 38.4 25.6 59.733l102.4 21.333zM512 341.333c-59.733 0-106.667 46.933-106.667 106.667s46.933 106.667 106.667 106.667 106.667-46.933 106.667-106.667c0-59.733-46.933-106.667-106.667-106.667z" />
<glyph unicode="&#xe912;" glyph-name="calendario" d="M256 576h512v-128h-512v128zM256 320h256v-128h-256v128zM128 960h128v-128h-128v128zM768 960h128v-128h-128v128zM896 832v-64h-128v64h-512v-64h-128v64h-128v-896h1024v896h-128zM896 64h-768v640h768v-640z" />
<glyph unicode="&#xe913;" glyph-name="actualizacion" d="M1024 554.667h-384l157.867 162.133c-157.867 153.6-409.6 157.867-567.467 4.267-153.6-153.6-153.6-401.067-4.267-554.667 0 0 4.267-4.267 4.267-4.267 153.6-153.6 405.333-153.6 563.2 0 76.8 72.533 119.467 174.933 115.2 277.333h115.2c-4.267-132.267-55.467-260.267-149.333-358.4-200.533-196.267-524.8-196.267-725.333 0-196.267 196.267-200.533 516.267-4.267 712.533 0 0 4.267 4.267 4.267 4.267 200.533 196.267 520.533 196.267 721.067 0l153.6 162.133v-405.333z" />
<glyph unicode="&#xe914;" glyph-name="mensaje" d="M768 541.867c49.579 0 96.171-12.245 137.344-33.621v310.016c0 49.792-40.747 90.539-90.539 90.539h-724.267c-49.792 0-90.069-40.747-90.069-90.539l-0.469-543.189c0-49.792 40.747-90.539 90.539-90.539h384.64c-3.797 18.987-5.845 38.571-5.845 58.667 0 164.949 133.717 298.667 298.667 298.667zM90.539 727.723v90.539l362.112-226.347 362.112 226.347v-90.539l-362.112-226.347-362.112 226.347zM783.829 467.2c-132.565 0-240.171-107.52-240.171-240s107.605-240 240.171-240 240.171 107.52 240.171 240-107.605 240-240.171 240zM733.909 102.315l-124.757 124.672 35.2 35.157 89.6-89.259 189.397 189.269 35.2-35.413-224.64-224.427z" />
<glyph unicode="&#xe915;" glyph-name="movimientos" d="M689.92 337.92c0-38.869-12.629-72.32-37.931-100.395s-58.155-45.397-98.603-52.011v-66.645c0-3.541-1.152-6.485-3.413-8.747-2.304-2.304-5.248-3.456-8.789-3.456h-51.499c-3.285 0-6.187 1.195-8.576 3.627-2.432 2.432-3.627 5.291-3.627 8.576v66.645c-16.768 2.304-32.981 6.229-48.64 11.819-15.616 5.589-28.544 11.221-38.699 16.939s-19.584 11.819-28.203 18.304c-8.661 6.485-14.549 11.221-17.749 14.293-3.157 3.029-5.419 5.333-6.656 6.869-4.309 5.333-4.565 10.539-0.768 15.616l39.296 51.413c1.792 2.56 4.693 4.053 8.789 4.565 3.797 0.512 6.869-0.64 9.173-3.413l0.768-0.768c28.715-25.131 59.605-41.003 92.672-47.616 9.387-2.048 18.816-3.029 28.203-3.029 20.608 0 38.699 5.461 54.357 16.384 15.616 10.923 23.467 26.411 23.467 46.464 0 7.125-1.92 13.824-5.717 20.181s-8.064 11.691-12.757 16c-4.693 4.309-12.16 9.088-22.315 14.293s-18.56 9.259-25.173 12.203c-6.613 2.901-16.768 7.040-30.507 12.373-9.899 4.053-17.749 7.253-23.467 9.515-5.717 2.304-13.525 5.632-23.467 10.112s-17.877 8.363-23.851 11.819c-5.973 3.413-13.141 7.936-21.547 13.525s-15.189 10.965-20.395 16.171c-5.205 5.205-10.752 11.435-16.597 18.688s-10.368 14.592-13.525 22.101c-3.157 7.509-5.845 15.957-8.021 25.344-2.219 9.344-3.285 19.243-3.285 29.653 0 35.029 12.459 65.792 37.376 92.203s57.344 43.435 97.237 51.029v68.565c0 3.285 1.195 6.144 3.627 8.576s5.291 3.627 8.576 3.627h51.499c3.541 0 6.485-1.152 8.789-3.413 2.304-2.304 3.413-5.205 3.413-8.747v-67.029c14.507-1.536 28.544-4.437 42.155-8.747s24.661-8.576 33.195-12.757 16.597-8.96 24.235-14.293c7.637-5.333 12.587-9.003 14.891-11.051s4.181-3.797 5.717-5.333c4.309-4.565 4.949-9.387 1.92-14.464l-30.891-55.637c-2.048-3.797-4.949-5.845-8.789-6.101-3.541-0.768-6.997 0.128-10.283 2.645-0.768 0.768-2.603 2.304-5.547 4.565-2.944 2.304-7.893 5.632-14.891 10.112-6.997 4.437-14.421 8.491-22.315 12.203-7.893 3.669-17.365 6.997-28.416 9.899s-21.931 4.395-32.597 4.395c-24.149 0-43.861-5.461-59.136-16.384s-22.869-25.003-22.869-42.283c0-6.613 1.067-12.715 3.243-18.304s5.931-10.837 11.264-15.829c5.333-4.949 10.368-9.131 15.061-12.587 4.693-3.413 11.819-7.381 21.376-11.819s17.237-7.893 23.083-10.283c5.845-2.432 14.763-5.888 26.709-10.496 13.483-5.077 23.765-9.088 30.891-11.989s16.768-7.381 28.971-13.312c12.203-5.973 21.803-11.349 28.8-16.171s14.891-11.179 23.637-19.029c8.789-7.893 15.531-15.957 20.224-24.192s8.704-17.963 12.032-29.141c3.2-11.221 4.864-23.168 4.864-35.84zM1024 203.307l-139.819-139.307-139.819 139.307h104.832v244.693h69.888v-244.693h104.917zM279.595 692.693h-104.832v-244.693h-69.931v244.693h-104.832l139.819 139.307 139.776-139.307z" />
<glyph unicode="&#xe916;" glyph-name="exportar" d="M900.907 742.869c10.368-10.667 19.243-25.131 26.667-43.435 7.381-18.304 11.093-35.072 11.093-50.304v-658.304c0-15.232-5.205-28.203-15.573-38.869-10.368-10.624-22.955-15.957-37.76-15.957h-746.667c-14.805 0-27.392 5.333-37.76 16s-15.573 23.637-15.573 38.869v914.261c0 15.232 5.205 28.203 15.573 38.869s22.955 16 37.76 16h497.792c14.805 0 31.104-3.797 48.896-11.435s31.872-16.768 42.24-27.435l173.312-178.261zM654.208 882.304v-214.869h208.896c-3.712 11.051-7.765 18.859-12.203 23.424l-173.909 178.859c-4.437 4.565-12.032 8.747-22.784 12.587zM867.541 9.131v585.173h-231.125c-14.805 0-27.392 5.333-37.76 16s-15.573 23.637-15.573 38.869v237.696h-426.667v-877.696h711.125zM323.669 142.848v-60.587h156.117v60.587h-41.685l57.216 91.989c1.835 2.645 3.712 5.803 5.547 9.429s3.243 6.187 4.181 7.723 1.579 2.304 1.963 2.304h1.109c0.384-1.536 1.28-3.413 2.773-5.717 0.725-1.536 1.579-2.944 2.517-4.267s2.048-2.859 3.328-4.565c1.28-1.707 2.517-3.328 3.627-4.864l59.435-91.989h-42.24v-60.587h161.664v60.587h-37.76l-106.667 155.989 108.331 161.152h37.205v61.141h-155.008v-61.141h41.131l-57.216-90.837c-1.493-2.645-3.328-5.803-5.547-9.429s-3.883-6.187-4.992-7.723l-1.109-1.707h-1.109c-0.384 1.536-1.28 3.413-2.773 5.717-2.219 4.181-5.376 8.576-9.429 13.141l-58.88 90.837h42.24v61.141h-161.195v-61.141h37.76l105.003-155.435-107.776-161.707h-37.76z" />
<glyph unicode="&#xe917;" glyph-name="importar" horiz-adv-x="1536" d="M1241.6 576c-51.2 260.267-302.933 426.667-563.2 375.467-149.333-29.867-268.8-119.467-332.8-247.467-213.333-25.6-366.933-217.6-341.333-426.667 17.067-192 187.733-341.333 379.733-341.333h832c179.2 0 320 140.8 320 320 0 166.4-128 307.2-294.4 320zM896 384v-256h-256v256h-192l320 320 320-320h-192z" />
<glyph unicode="&#xe918;" glyph-name="agregar" d="M512 960c-281.6 0-512-230.4-512-512s230.4-512 512-512 512 230.4 512 512-230.4 512-512 512zM832 384h-256v-256h-128v256h-256v128h256v256h128v-256h256v-128z" />
<glyph unicode="&#xe919;" glyph-name="imprimir" d="M870.4 652.8h-716.8c-85.333 0-153.6-68.267-153.6-153.6 0 0 0 0 0 0v-307.2h204.8v-204.8h614.4v204.8h204.8v307.2c0 85.333-68.267 153.6-153.6 153.6 0 0 0 0 0 0zM716.8 89.6h-409.6v256h409.6v-256zM870.4 448c-29.867 0-51.2 21.333-51.2 51.2s21.333 51.2 51.2 51.2c29.867 0 51.2-21.333 51.2-51.2s-21.333-51.2-51.2-51.2v0zM819.2 908.8h-614.4v-204.8h614.4v204.8z" />
<glyph unicode="&#xe91a;" glyph-name="descargar" d="M85.333-64h853.333v128h-853.333v-128zM938.667 618.667h-256l-4.267 341.333h-337.067v-341.333h-256l426.667-469.333 426.667 469.333z" />
<glyph unicode="&#xe91b;" glyph-name="editar" d="M0 217.6v-281.6h281.6l563.2 563.2-281.6 281.6-563.2-563.2zM247.467 21.333h-72.533v85.333h-89.6v72.533l59.733 59.733 157.867-157.867-55.467-59.733zM593.067 631.467c17.067-17.067 17.067-42.667 0-59.733l-328.533-328.533c-17.067-17.067-42.667-17.067-59.733 0s-17.067 42.667 0 59.733c0 0 0 0 0 0l328.533 328.533c17.067 17.067 46.933 17.067 59.733 0v0zM1024 712.533c0-21.333-8.533-46.933-25.6-59.733l-110.933-110.933-281.6 281.6 110.933 110.933c17.067 17.067 38.4 25.6 59.733 25.6s46.933-8.533 59.733-25.6l157.867-157.867c21.333-17.067 29.867-38.4 29.867-64z" />
<glyph unicode="&#xe91c;" glyph-name="buscar" d="M733.867 315.733h-46.933l-17.067 17.067c136.533 157.867 119.467 401.067-42.667 537.6s-401.067 119.467-537.6-42.667-119.467-401.067 42.667-537.6c140.8-123.733 354.133-123.733 494.933 0l17.067-17.067v-46.933l294.4-290.133 85.333 85.333-290.133 294.4zM379.733 315.733c-145.067 0-264.533 119.467-264.533 264.533s119.467 264.533 264.533 264.533 264.533-119.467 264.533-264.533-119.467-264.533-264.533-264.533c0 0 0 0 0 0z" />
<glyph unicode="&#xe91d;" glyph-name="sin-alertas" d="M512-64c59.733 0 106.667 46.933 106.667 106.667h-213.333c0-59.733 46.933-106.667 106.667-106.667zM832 251.733v264.533c0 162.133-85.333 294.4-238.933 332.8v34.133c0 42.667-38.4 76.8-81.067 76.8s-81.067-34.133-81.067-76.8v-34.133c-153.6-34.133-238.933-170.667-238.933-332.8v-264.533l-106.667-106.667v-51.2h853.333v51.2l-106.667 106.667zM725.333 200.533h-426.667v315.733c0 132.267 81.067 234.667 213.333 234.667s213.333-106.667 213.333-234.667v-315.733z" />
<glyph unicode="&#xe91e;" glyph-name="cambiar-clave" d="M1024 140.8v-204.8h-204.8v153.6h-153.6v153.6h-153.6l-115.2 115.2c-29.867-8.533-59.733-12.8-89.6-12.8-170.667 0-307.2 136.533-307.2 307.2s136.533 307.2 307.2 307.2 307.2-136.533 307.2-307.2c0-29.867-4.267-59.733-12.8-89.6l422.4-422.4zM256 806.4c-55.467 0-102.4-46.933-102.4-102.4s46.933-102.4 102.4-102.4 102.4 46.933 102.4 102.4v0c0 55.467-46.933 102.4-102.4 102.4z" />
<glyph unicode="&#xe91f;" glyph-name="cambiar-servicio" d="M401.067-38.4c-93.867 0-170.667 72.533-174.933 166.4 0 68.267 38.4 128 98.133 157.867 12.8 59.733 68.267 102.4 132.267 102.4 17.067 0 29.867-4.267 42.667-8.533 42.667 59.733 110.933 98.133 183.467 98.133 115.2 0 213.333-89.6 226.133-204.8 85.333-25.6 132.267-115.2 110.933-196.267-21.333-68.267-85.333-115.2-157.867-115.2h-460.8zM294.4 349.867c21.333 68.267 85.333 115.2 157.867 115.2 8.533 0 21.333 0 29.867-4.267 4.267 4.267 8.533 8.533 12.8 12.8-12.8 21.333-34.133 38.4-55.467 42.667-8.533 72.533-72.533 132.267-149.333 128-46.933 0-89.6-21.333-119.467-59.733-4.267 8.533-12.8 8.533-21.333 8.533-42.667 0-76.8-25.6-89.6-68.267-55.467-29.867-76.8-98.133-46.933-153.6 21.333-38.4 59.733-64 102.4-59.733h128c17.067 12.8 34.133 29.867 51.2 38.4zM413.867 934.4c-145.067 0-277.333-89.6-324.267-230.4l64-29.867c34.133 115.2 140.8 192 260.267 192 93.867-4.267 174.933-51.2 226.133-128h-128v-64h226.133v260.267h-64v-128c-64 81.067-162.133 128-260.267 128z" />
<glyph unicode="&#xe920;" glyph-name="cerrar-sesion" d="M631.467 243.2l149.333 149.333h-554.667v115.2h550.4l-149.333 149.333 81.067 81.067 285.867-285.867-285.867-285.867-76.8 76.8zM908.8 960c64 0 115.2-51.2 115.2-115.2v-264.533l-115.2 115.2v149.333h-793.6v-797.867h797.867v153.6l115.2 115.2v-264.533c0-64-51.2-115.2-115.2-115.2h-797.867c-64 0-115.2 51.2-115.2 115.2 0 0 0 0 0 0v793.6c0 64 51.2 115.2 110.933 115.2 0 0 0 0 0 0h797.867z" />
<glyph unicode="&#xe921;" glyph-name="error" d="M512 960c-281.6 0-512-230.4-512-512s230.4-512 512-512 512 230.4 512 512-230.4 512-512 512v0zM776.32 243.029l-60.501-60.843c-11.093-11.179-29.099-11.179-40.235 0l-163.584 164.523-163.584-164.523c-11.093-11.179-29.099-11.179-40.235 0l-60.501 60.843c-11.093 11.179-11.093 29.269 0 40.448l163.584 164.523-163.584 164.523c-11.093 11.179-11.093 29.269 0 40.448l60.501 60.843c11.093 11.179 29.099 11.179 40.235 0l163.584-164.523 163.584 164.523c11.093 11.179 29.099 11.179 40.235 0l60.501-60.843c11.093-11.179 11.093-29.269 0-40.448l-163.584-164.523 163.584-164.523c11.136-11.136 11.136-29.269 0-40.448z" />
<glyph unicode="&#xe922;" glyph-name="invalido" d="M512 960c-282.77 0-512-229.23-512-512s229.23-512 512-512c282.77 0 512 229.23 512 512s-229.23 512-512 512zM576 128h-128v128h128zM576 384h-128v384h128z" />
<glyph unicode="&#xe923;" glyph-name="visible" d="M512 789.333c-226.133 0-426.667-132.267-512-341.333 85.333-209.067 285.867-341.333 512-341.333s426.667 132.267 512 341.333c-85.333 209.067-285.867 341.333-512 341.333zM512 221.867c-128 0-230.4 102.4-234.667 226.133 4.267 128 110.933 230.4 238.933 226.133 123.733-4.267 226.133-102.4 226.133-226.133 0-128-102.4-230.4-230.4-226.133zM512 584.533c-76.8 0-136.533-64-132.267-140.8s64-136.533 140.8-132.267c72.533 0 132.267 64 132.267 136.533 0 76.8-64 136.533-140.8 136.533 0 0 0 0 0 0z" />
<glyph unicode="&#xe924;" glyph-name="invisible" d="M512 674.133c128 4.267 230.4-98.133 234.667-221.867 0 0 0 0 0-4.267 0-29.867-4.267-55.467-17.067-85.333l136.533-136.533c72.533 59.733 123.733 132.267 157.867 217.6-81.067 209.067-285.867 341.333-507.733 341.333-64 0-123.733-8.533-183.467-29.867l93.867-98.133c25.6 12.8 55.467 17.067 85.333 17.067zM46.933 806.4l128-128c-76.8-59.733-136.533-136.533-174.933-230.4 85.333-209.067 285.867-345.6 512-345.6 68.267 0 140.8 12.8 204.8 38.4l157.867-157.867 59.733 59.733-827.733 823.467-59.733-59.733zM302.933 550.4l72.533-72.533c-4.267-8.533-4.267-21.333-4.267-29.867 0-76.8 64-136.533 140.8-136.533 0 0 0 0 0 0 8.533 0 21.333 0 29.867 4.267l72.533-72.533c-115.2-55.467-251.733-12.8-311.467 102.4-17.067 29.867-25.6 68.267-25.6 102.4 4.267 38.4 12.8 72.533 25.6 102.4zM503.467 588.8l145.067-145.067v8.533c0 76.8-64 136.533-140.8 136.533 0 0 0 0 0 0h-4.267z" />
<glyph unicode="&#xe925;" glyph-name="checkbox-on" d="M908.8 960h-793.6c-64 0-115.2-51.2-115.2-115.2v-797.867c0-59.733 51.2-110.933 115.2-110.933h797.867c64 0 115.2 51.2 115.2 115.2v793.6c-4.267 64-55.467 115.2-119.467 115.2zM396.8 166.4l-285.867 285.867 85.333 81.067 204.8-204.8 426.667 430.933 81.067-81.067-512-512z" />
<glyph unicode="&#xe926;" glyph-name="checkbox-off" d="M910.208 960h-796.416c-62.846 0-113.792-50.946-113.792-113.792v-796.416c0-62.846 50.946-113.792 113.792-113.792h796.416c62.846 0 113.792 50.946 113.792 113.792v796.416c0 62.846-50.946 113.792-113.792 113.792zM938.667 21.333h-853.333v853.333h853.333z" />
<glyph unicode="&#xe927;" glyph-name="radio-on" d="M768 448c0-141.385-114.615-256-256-256s-256 114.615-256 256c0 141.385 114.615 256 256 256 0.739 0.008 1.613 0.012 2.487 0.012 140.018 0 253.525-113.507 253.525-253.525 0-0.874-0.004-1.748-0.013-2.62zM1024 448c0-282.77-229.23-512-512-512s-512 229.23-512 512c0 282.77 229.23 512 512 512 282.429-0.847 511.153-229.571 512-511.919zM921.6 448c0 226.216-183.384 409.6-409.6 409.6s-409.6-183.384-409.6-409.6c0-226.216 183.384-409.6 409.6-409.6 225.943 0.677 408.923 183.657 409.6 409.535z" />
<glyph unicode="&#xe928;" glyph-name="radio-off" d="M1024 448c0-282.77-229.23-512-512-512s-512 229.23-512 512c0 282.77 229.23 512 512 512 282.429-0.847 511.153-229.571 512-511.919zM921.6 448c0 226.216-183.384 409.6-409.6 409.6s-409.6-183.384-409.6-409.6c0-226.216 183.384-409.6 409.6-409.6 225.943 0.677 408.923 183.657 409.6 409.535z" />
<glyph unicode="&#xe929;" glyph-name="pdf" d="M900.907 742.869c10.368-10.667 19.243-25.131 26.667-43.435 7.381-18.304 11.093-35.072 11.093-50.304v-658.304c0-15.232-5.205-28.203-15.573-38.869-10.368-10.624-22.955-15.957-37.76-15.957h-746.667c-14.805 0-27.392 5.333-37.76 16s-15.573 23.637-15.573 38.869v914.261c0 15.232 5.205 28.203 15.573 38.869s22.955 16 37.76 16h497.792c14.805 0 31.104-3.797 48.896-11.435s31.872-16.768 42.24-27.435l173.312-178.261zM654.208 882.304v-214.869h208.896c-3.712 11.051-7.765 18.859-12.203 23.424l-173.909 178.859c-4.437 4.565-12.032 8.747-22.784 12.587zM867.541 9.131v585.173h-231.125c-14.805 0-27.392 5.333-37.76 16s-15.573 23.637-15.573 38.869v237.696h-426.667v-877.696h711.125zM582.016 347.989c12.203-9.899 27.776-20.565 46.677-32 21.845 2.688 43.477 4.011 64.981 4.011 54.443 0 87.211-9.344 98.347-27.989 5.931-8.363 6.315-18.304 1.109-29.696 0-0.384-0.171-0.768-0.555-1.152l-1.109-1.152v-0.555c-2.219-14.464-15.36-21.717-39.424-21.717-17.792 0-39.083 3.797-63.872 11.435-24.832 7.637-48.896 17.707-72.235 30.293-81.835-9.131-154.453-24.96-217.771-47.445-56.661-99.797-101.461-149.717-134.443-149.717-5.547 0-10.752 1.323-15.573 4.011l-13.312 6.869c-0.384 0.384-1.493 1.323-3.328 2.859-3.755 3.755-4.864 10.624-3.413 20.523 3.328 15.232 13.696 32.683 31.104 52.267 17.408 19.627 41.856 38.016 73.344 55.125 5.205 3.413 9.429 2.304 12.757-3.413 0.725-0.768 1.109-1.536 1.109-2.304 19.243 32.384 39.083 69.888 59.435 112.555 25.173 51.797 44.459 101.717 57.771 149.717-8.875 31.232-14.549 61.611-16.939 91.136s-1.195 53.803 3.627 72.875c4.053 15.232 11.861 22.869 23.339 22.869h12.203c8.533 0 15.019-2.859 19.456-8.576 6.699-7.979 8.363-20.907 5.035-38.827-0.725-2.304-1.493-3.797-2.219-4.565 0.384-1.152 0.555-2.688 0.555-4.565v-17.152c-0.725-46.848-3.328-83.413-7.765-109.696 20.352-62.507 47.403-107.819 81.109-136.021zM262.016 113.152c19.243 9.131 44.629 39.253 76.117 90.283-18.901-15.232-35.072-31.232-48.597-48-13.568-16.768-22.741-30.848-27.52-42.283zM483.115 638.848c-5.547-16-5.931-41.131-1.109-75.435 0.384 2.645 1.664 11.051 3.883 25.131 0 1.152 1.28 9.344 3.883 24.576 0.384 1.536 1.109 3.029 2.219 4.565-0.384 0.384-0.555 0.768-0.555 1.152s-0.085 0.683-0.299 0.853c-0.171 0.171-0.299 0.469-0.299 0.853-0.384 8.363-2.773 15.232-7.211 20.565 0-0.384-0.171-0.768-0.555-1.152v-1.109zM414.208 261.163c50.005 20.565 102.613 36.011 157.781 46.293-0.725 0.384-3.157 2.176-7.211 5.419s-7.040 5.803-8.875 7.723c-28.16 25.515-51.669 59.051-70.571 100.565-9.984-32.768-25.387-70.272-46.123-112.555-11.093-21.376-19.413-37.163-25.003-47.445zM773.12 270.293c-8.875 9.131-34.816 13.696-77.781 13.696 28.16-10.667 51.115-16 68.907-16 5.205 0 8.533 0.171 9.984 0.555 0 0.427-0.384 0.981-1.109 1.749z" />
<glyph unicode="&#xe92a;" glyph-name="borrar" d="M698.88 871.509l-42.027 57.6-198.827 30.891-57.387-42.155-248.533 38.613-15.36-99.797 795.264-123.477 15.403 99.755zM840.704 693.077h-686.165l7.808-117.248 5.888-88.875 9.344-140.928 20.949-315.435c0.469-6.997 1.707-13.739 3.541-20.267 0.043-0.171 0.128-0.299 0.171-0.469 12.032-42.667 51.029-73.856 96.896-73.856h414.933c44.885 0 82.987 29.909 95.915 71.211 0.171 0.512 0.384 0.939 0.555 1.451 2.091 7.040 3.627 14.336 4.139 21.973l15.829 237.824 3.371 50.56 8.875 133.675 0.085 1.152 14.763 222.293 1.109 16.939h-18.005zM740.523 555.563l-1.621-24.405-8.235-123.776-0.043-0.768-5.931-89.088-2.219-33.707-4.48-67.499-6.059-91.008c-0.341-5.077-1.365-9.941-2.773-14.635-0.085-0.341-0.256-0.64-0.341-0.981-8.619-27.52-34.005-47.445-63.915-47.445h-276.565c-30.592 0-56.576 20.779-64.597 49.28-0.043 0.085-0.085 0.213-0.128 0.299-1.195 4.352-2.048 8.832-2.347 13.525l-13.952 210.219-0.725 10.709-5.547 83.2-3.925 59.221-5.163 78.165h469.291l-0.725-11.307z" />
<glyph unicode="&#xe92b;" glyph-name="cambiar-usuario" d="M204.8 197.888c-121.173 0-204.8-62.336-204.8-151.595v-67.627h409.6v67.584c0 89.301-85.333 151.637-204.8 151.637zM332.8 382.208c0-70.699-57.301-128-128-128s-128 57.301-128 128 57.301 128 128 128 128-57.301 128-128zM819.2 197.888c-121.173 0-204.8-62.336-204.8-151.595v-67.541h409.6v67.541c0 89.259-85.333 151.595-204.8 151.595zM947.2 382.208c0-70.699-57.301-128-128-128s-128 57.301-128 128 57.301 128 128 128 128-57.301 128-128zM512 917.333c-177.408 0-323.541-107.691-384-271.445l76.8-35.755c50.603 137.045 158.336 230.4 307.2 230.4 112.469 0 206.165-65.195 268.8-153.6h-153.6v-76.8h268.8v307.2h-76.8v-153.6c-76.032 92.16-183.253 153.6-307.2 153.6z" />
<glyph unicode="&#xe92c;" glyph-name="descartar-papelera" d="M640 277.333h170.667v-85.333h-170.667v85.333zM640 618.667h298.667v-85.333h-298.667v85.333zM640 448h256v-85.333h-256v85.333zM128 192c0-46.933 38.4-85.333 85.333-85.333h256c46.933 0 85.333 38.4 85.333 85.333v426.667h-426.667v-426.667zM597.333 746.667h-128l-42.667 42.667h-170.667l-42.667-42.667h-128v-85.333h512v85.333z" />
<glyph unicode="&#xe92d;" glyph-name="eliminar-papelera" d="M640 277.333h170.667v-85.333h-170.667v85.333zM640 618.667h298.667v-85.333h-298.667v85.333zM640 448h256v-85.333h-256v85.333zM298.667 709.333c-164.267 0-298.667-134.4-298.667-298.667s134.4-298.667 298.667-298.667 298.667 134.4 298.667 298.667-134.4 298.667-298.667 298.667v0zM472.875 298.155l-61.696-61.696-112.512 112.512-112.512-112.512-61.696 61.696 112.512 112.512-112.512 112.512 61.696 61.696 112.512-112.512 112.512 112.512 61.696-61.696-112.512-112.512 112.512-112.512z" />
<glyph unicode="&#xe92e;" glyph-name="recuperar" d="M654.208 701.867h-256v219.008l-398.208-332.8 398.208-332.8v219.008h256c79.659 0 142.208-62.592 142.208-142.208 0-79.659-62.592-142.208-142.208-142.208h-85.333v-227.541h85.333c204.8 0 369.792 164.992 369.792 369.792s-164.992 369.749-369.792 369.749z" />
<glyph unicode="&#xe92f;" glyph-name="menu-loading" d="M936.533 490.155c-0.555 5.589-1.579 11.008-2.347 16.512-1.109 8.107-2.133 16.213-3.669 24.192-1.365 6.955-3.243 13.739-4.949 20.565-1.536 6.229-2.944 12.501-4.779 18.603-2.261 7.552-4.949 14.933-7.637 22.357-1.835 5.077-3.541 10.155-5.547 15.147-3.157 7.851-6.741 15.531-10.368 23.125-2.005 4.181-3.925 8.448-6.059 12.544-4.053 7.893-8.448 15.531-12.971 23.125-2.133 3.584-4.267 7.168-6.485 10.709-4.907 7.68-10.069 15.147-15.445 22.485-2.304 3.115-4.608 6.272-6.955 9.344-5.632 7.296-11.52 14.379-17.621 21.291-2.517 2.859-5.077 5.675-7.68 8.448-6.272 6.741-12.715 13.269-19.413 19.584-2.859 2.688-5.803 5.291-8.704 7.936-6.699 6.016-13.568 11.861-20.651 17.451-3.413 2.688-6.912 5.205-10.368 7.765-6.912 5.12-13.909 10.112-21.12 14.805-4.224 2.731-8.576 5.248-12.885 7.808-6.827 4.096-13.653 8.192-20.693 11.904-5.504 2.901-11.179 5.419-16.811 8.107-6.187 2.944-12.331 5.973-18.688 8.576-7.893 3.243-16.043 6.059-24.192 8.832-4.395 1.493-8.661 3.243-13.099 4.608-25.899 7.936-52.864 13.483-80.64 16.384v-86.016c3.84-0.512 7.552-1.408 11.307-2.048 5.675-0.939 11.307-1.835 16.896-3.029 4.693-1.024 9.216-2.347 13.824-3.584 5.888-1.536 11.819-2.987 17.579-4.864 3.755-1.195 7.381-2.731 11.093-4.053 22.485-8.149 43.861-18.517 63.915-30.976 2.987-1.835 6.059-3.541 8.96-5.461 5.077-3.371 9.899-7.083 14.763-10.709 3.584-2.645 7.211-5.205 10.667-7.979 4.48-3.584 8.704-7.467 12.971-11.264 3.584-3.2 7.211-6.315 10.624-9.685 3.968-3.84 7.68-7.851 11.477-11.861 3.456-3.669 6.912-7.381 10.197-11.221 3.456-4.053 6.741-8.192 10.027-12.373 3.243-4.139 6.4-8.32 9.472-12.629 2.987-4.224 5.845-8.533 8.661-12.885 2.944-4.608 5.76-9.216 8.491-13.952 2.517-4.352 4.992-8.789 7.296-13.269 2.603-5.035 5.035-10.155 7.381-15.317 2.048-4.48 4.096-8.917 5.931-13.483 2.219-5.504 4.181-11.093 6.144-16.725 1.536-4.48 3.157-8.917 4.523-13.483 1.792-6.059 3.285-12.203 4.736-18.389 1.024-4.352 2.219-8.661 3.115-13.099 1.365-7.040 2.304-14.165 3.285-21.333 0.512-3.755 1.195-7.381 1.579-11.179 1.067-11.051 1.664-22.187 1.664-33.493s-0.597-22.443-1.707-33.493c-0.384-3.755-1.067-7.424-1.579-11.179-0.939-7.168-1.877-14.336-3.285-21.333-0.853-4.437-2.048-8.747-3.115-13.099-1.493-6.187-2.944-12.331-4.736-18.347-1.365-4.565-2.987-9.045-4.523-13.525-1.963-5.632-3.883-11.221-6.144-16.683-1.835-4.565-3.883-9.045-5.931-13.525-2.347-5.163-4.779-10.283-7.381-15.275-2.347-4.523-4.779-8.917-7.339-13.312-2.731-4.736-5.547-9.344-8.491-13.952-2.816-4.352-5.675-8.661-8.661-12.885-3.029-4.309-6.187-8.448-9.429-12.629-3.285-4.224-6.571-8.363-10.069-12.416-3.285-3.84-6.699-7.509-10.155-11.179-3.755-4.011-7.509-8.064-11.477-11.904-3.456-3.328-7.040-6.485-10.624-9.685-4.267-3.797-8.491-7.68-12.971-11.264-3.456-2.773-7.125-5.333-10.667-7.979-4.864-3.627-9.685-7.339-14.763-10.709-2.901-1.92-6.016-3.627-8.96-5.461-20.011-12.416-41.344-22.784-63.829-30.933-3.712-1.365-7.381-2.859-11.179-4.096-5.76-1.835-11.691-3.328-17.579-4.864-4.608-1.237-9.173-2.56-13.824-3.584-5.547-1.237-11.221-2.091-16.896-3.029-18.219-3.029-36.864-4.992-56.021-4.992-14.464 0-28.672 1.195-42.667 2.944-14.848 1.877-29.312 4.779-43.52 8.491-1.237 0.341-2.475 0.597-3.712 0.939-28.971 7.936-56.405 19.541-81.792 34.389-0.171 0.085-0.341 0.213-0.512 0.299-12.672 7.467-24.832 15.659-36.395 24.661-0.128 0.171-0.299 0.256-0.469 0.384l-60.587-61.013c15.616-12.757 32.213-24.405 49.536-34.901 0.384-0.213 0.725-0.427 1.109-0.683 33.621-20.181 70.357-35.669 109.099-46.080 3.115-0.811 6.187-1.621 9.344-2.389 18.859-4.608 38.101-8.235 57.771-10.24 0.043 0 0.085 0 0.128 0 14.037-1.408 28.245-2.133 42.667-2.133 15.147 0 30.080 0.853 44.8 2.389 27.776 2.901 54.699 8.448 80.64 16.384 4.395 1.365 8.661 3.072 13.013 4.565 8.192 2.816 16.341 5.589 24.277 8.875 6.315 2.603 12.459 5.632 18.603 8.576 5.632 2.645 11.349 5.205 16.853 8.107 7.083 3.712 13.909 7.808 20.736 11.904 4.309 2.56 8.619 5.077 12.843 7.765 7.253 4.693 14.251 9.728 21.205 14.848 3.456 2.56 6.955 5.077 10.368 7.723 7.083 5.547 13.909 11.392 20.608 17.408 2.944 2.645 5.888 5.248 8.789 7.979 6.656 6.315 13.099 12.843 19.371 19.541 2.603 2.773 5.163 5.632 7.723 8.491 6.101 6.912 11.947 13.995 17.579 21.248 2.389 3.072 4.693 6.229 6.997 9.387 5.376 7.339 10.539 14.805 15.445 22.485 2.261 3.499 4.352 7.125 6.485 10.709 4.523 7.595 8.917 15.232 12.971 23.125 2.133 4.139 4.053 8.363 6.059 12.587 3.627 7.637 7.168 15.275 10.368 23.125 2.005 4.949 3.712 10.027 5.504 15.061 2.688 7.424 5.376 14.805 7.637 22.4 1.792 6.101 3.243 12.373 4.779 18.56 1.707 6.827 3.584 13.611 4.949 20.565 1.536 7.936 2.56 16.085 3.669 24.192 0.768 5.504 1.792 10.923 2.347 16.512 1.28 13.867 2.048 27.904 2.048 42.155s-0.768 28.288-2.133 42.155z" />
<glyph unicode="&#xe930;" glyph-name="inicio" d="M422.4 64v271.061h179.2v-271.061h224v361.429h134.4l-448 406.571-448-406.571h134.4v-361.429h224z" />
<glyph unicode="&#xe931;" glyph-name="notificaciones-activas" d="M768 896v0c-106.667 0-192-85.333-192-192v0c0-106.667 85.333-192 192-192v0c106.667 0 192 85.333 192 192v0c0 106.667-85.333 192-192 192z" />
<glyph unicode="&#xe932;" glyph-name="eliminar-todo" d="M725.333 533.333c-117.333 0-213.333-96-213.333-213.333s96-213.333 213.333-213.333 213.333 96 213.333 213.333-96 213.333-213.333 213.333v0zM832 251.093l-37.76-37.76-68.907 68.907-68.907-68.907-37.76 37.76 68.907 68.907-68.907 68.907 37.76 37.76 68.907-68.907 68.907 68.907 37.76-37.76-68.907-68.907 68.907-68.907zM534.912 490.667c-22.101-24.619-39.424-53.504-50.688-85.333h-270.891v85.333h321.579zM469.333 320c0-29.952 5.419-58.624 14.891-85.333h-356.224v85.333h341.333zM896 576h-597.333v85.333h597.333v-85.333z" />
<glyph unicode="&#xe933;" glyph-name="check" d="M512 960c-282.624 0-512-229.376-512-512s229.376-512 512-512 512 229.376 512 512-229.376 512-512 512zM409.6 192l-256 256 72.192 72.192 183.808-183.296 388.608 388.608 72.192-72.704-460.8-460.8z" />
<glyph unicode="&#xe934;" d="M524.544 519.296l-123.563 123.563 70.955 73.387c11.349 10.965 25.728 16.64 40.064 16.64 14.379 0 28.757-5.675 40.064-16.64l228.139-228.053c22.315-22.315 22.315-57.813 0-80.128l-70.955-73.387-184.704 184.619zM626.432 252.544l-73.387-70.955c-22.315-22.315-57.813-22.315-80.128 0l-228.053 228.139c-10.965 11.349-16.64 25.728-16.64 40.064 0 14.379 5.675 28.715 16.64 40.064l73.387 70.955 308.181-308.267z" />
<glyph unicode="&#xe935;" d="M1024 448c0-282.77-229.23-512-512-512s-512 229.23-512 512c0 282.77 229.23 512 512 512s512-229.23 512-512z" />
<glyph unicode="&#xe936;" glyph-name="atras" d="M1024 512h-778.88l357.76 357.76-90.88 90.24-512-512 512-512 90.24 90.24-357.12 357.76h778.88v128z" />
<glyph unicode="&#xe937;" glyph-name="conectado" d="M878.667 874.667l-149.333-149.333-81.333 81.333c-34.133 34.133-84.533 34.133-118.667 0l-106.667-106.667-42.667 42.667-60-60 426.667-426.667 60 60-42.667 42.667 106.667 106.667c34.133 34.133 34.133 84.533 0 118.667l-81.333 81.333 149.333 149.333-60 60zM273.333 636l-60-60 42.667-42.667-102.667-102.667c-34.133-34.133-34.133-84.533 0-118.667l81.333-81.333-149.333-149.333 60-60 149.333 149.333 81.333-81.333c34.133-34.133 84.533-34.133 118.667 0l102.667 102.667 42.667-42.667 60 60-426.667 426.667z" />
<glyph unicode="&#xe938;" glyph-name="desconectado" d="M632 874.667c-21.333 0-42.933-8.267-60-25.333l-64-64-42.667 42.667-60-60 98.667-98.667-112-110.667 60-60 110.667 112 112-112-112-110.667 60-60 110.667 112 98.667-98.667 60 60-42.667 42.667 64 64c34.133 34.133 34.133 84.533 0 118.667l-81.333 81.333 106.667 106.667-60 60-106.667-106.667-81.333 81.333c-17.067 17.067-37.333 25.333-58.667 25.333zM188 550.667l-60-60 42.667-42.667-60-60c-34.133-34.133-34.133-84.533 0-118.667l81.333-81.333-106.667-106.667 60-60 106.667 106.667 81.333-81.333c34.133-34.133 84.533-34.133 118.667 0l60 60 42.667-42.667 60 60-426.667 426.667z" />
<glyph unicode="&#xe939;" glyph-name="notificaciones-error" d="M768 503.467c0 132.267-68.267 247.467-192 277.333v29.867c0 34.133-29.867 64-64 64s-64-29.867-64-64v-29.867c-22.016-5.333-41.6-14.165-60.075-24.491l380.075-401.323v148.48zM512 21.333c46.933 0 85.333 38.4 85.333 89.6h-170.667c0-51.2 38.4-89.6 85.333-89.6zM334.507 701.355l-109.653 113.067-54.187-54.187 115.328-115.328c-2.688-5.76-4.736-11.904-7.083-17.877-2.645-6.827-5.291-13.653-7.467-20.779-1.877-5.973-3.413-12.117-4.949-18.304-2.048-8.363-3.797-16.853-5.205-25.472-0.853-5.163-1.792-10.283-2.432-15.531-1.707-14.251-2.859-28.715-2.859-43.477v-217.6l-85.333-89.6v-42.667h682.667v12.288l-518.827 535.467z" />
<glyph unicode="&#xe93a;" glyph-name="checkbox-indeterminado" d="M910.208 960h-796.416c-62.592 0-113.792-51.2-113.792-113.792v-796.459c0-62.549 51.2-113.749 113.792-113.749h796.459c62.549 0 113.749 51.2 113.749 113.792v796.416c0 62.592-51.2 113.792-113.792 113.792zM832 376.875h-640v128h640v-128z" />
<glyph unicode="&#xe93b;" glyph-name="intercambiar" d="M592.043 530.261h-296.021v-147.584l-296.021 245.973 296.021 246.016v-147.584h296.021v-196.821zM1024 261.248l-296.021 246.016v-147.584h-296.021v-196.821h296.021v-147.584l296.021 245.973z" />
<glyph unicode="&#xe93c;" glyph-name="link-externo" d="M113.792 960c-62.592 0-113.792-51.2-113.792-113.792v-796.459c0-62.549 51.2-113.749 113.792-113.749h796.459c62.549 0 113.749 51.2 113.749 113.792v341.333l-113.792 113.792v-455.125h-796.416v796.416h455.125l-113.792 113.792h-341.333zM625.792 960l151.125-151.125-426.667-426.667 96-96 426.667 426.667 151.083-151.083v398.208h-398.208z" />
<glyph unicode="&#xe93d;" glyph-name="advertencia" d="M585.045 141.696v107.179c0 5.248-1.792 9.685-5.419 13.269s-7.893 5.376-12.843 5.376h-109.611c-4.949 0-9.216-1.792-12.843-5.376s-5.419-7.979-5.419-13.269v-107.179c0-5.248 1.792-9.685 5.419-13.269s7.893-5.376 12.843-5.376h109.611c4.949 0 9.216 1.792 12.843 5.376s5.419 8.021 5.419 13.269zM583.936 352.683l10.283 258.944c0 4.523-1.92 8.107-5.717 10.709-4.949 4.139-9.515 6.187-13.696 6.187h-125.568c-4.181 0-8.747-2.048-13.696-6.187-3.797-2.645-5.717-6.571-5.717-11.861l9.685-257.792c0-3.755 1.92-6.869 5.717-9.301s8.363-3.669 13.696-3.669h105.6c5.333 0 9.813 1.237 13.397 3.669 3.627 2.432 5.632 5.504 6.016 9.301zM575.915 879.531l438.357-794.24c13.312-23.68 12.928-47.403-1.152-71.083-6.485-10.923-15.317-19.541-26.539-25.941s-23.296-9.6-36.224-9.6h-876.715c-12.928 0-25.003 3.2-36.224 9.6s-20.053 15.061-26.539 25.941c-14.080 23.68-14.464 47.403-1.152 71.083l438.357 794.24c6.485 11.648 15.403 20.864 26.837 27.648s23.765 10.155 37.077 10.155 25.685-3.371 37.12-10.155 20.352-16 26.795-27.648z" />
<glyph unicode="&#xe93e;" glyph-name="libros" d="M756.352 797.099l-174.549-157.099v-384l174.549 157.099v384zM320 692.352c-68.053 0-141.397-13.952-192-52.352v-511.787c0-8.747 8.747-17.451 17.451-17.451 3.499 0 5.248 2.432 8.747 2.432 47.147 22.699 115.2 38.059 165.803 38.059 68.053 0 141.397-13.952 192-52.352 47.147 29.653 132.651 52.352 192 52.352 57.6 0 116.949-10.837 165.803-36.992 3.499-1.749 5.248-1.067 8.747-1.067 8.747 0 17.451 8.747 17.451 17.451v509.355c-20.949 15.701-43.648 26.197-69.803 34.901v-471.253c-38.4 12.203-80.299 17.451-122.197 17.451-59.349 0-144.853-22.699-192-52.352v471.253c-50.603 38.4-123.947 52.352-192 52.352v0z" />
<glyph unicode="&#xe93f;" glyph-name="venta" d="M768 282.88c0-58.283-18.176-108.459-54.571-150.613-36.395-42.112-83.669-68.096-141.867-77.995v-99.968c0-5.333-1.664-9.728-4.907-13.141-3.328-3.413-7.595-5.163-12.672-5.163h-74.112c-4.736 0-8.917 1.792-12.331 5.419-3.499 3.627-5.205 7.936-5.205 12.885v99.968c-24.107 3.456-47.445 9.344-69.973 17.749-22.485 8.405-41.088 16.853-55.68 25.387-14.592 8.576-28.16 17.749-40.576 27.477-12.459 9.728-20.949 16.853-25.557 21.419-4.523 4.523-7.808 8.021-9.557 10.283-6.187 8.021-6.571 15.787-1.109 23.424l56.533 77.099c2.56 3.84 6.741 6.059 12.629 6.827 5.461 0.768 9.899-0.939 13.184-5.12l1.109-1.152c41.301-37.675 85.76-61.483 133.333-71.424 13.525-3.072 27.093-4.523 40.576-4.523 29.653 0 55.68 8.192 78.208 24.576 22.485 16.384 33.749 39.595 33.749 69.675 0 10.667-2.773 20.736-8.235 30.251-5.461 9.557-11.605 17.536-18.347 23.979s-17.493 13.611-32.128 21.461c-14.592 7.808-26.709 13.867-36.224 18.304-9.515 4.352-24.107 10.581-43.904 18.56-14.251 6.059-25.557 10.88-33.749 14.251-8.235 3.456-19.456 8.448-33.749 15.189s-25.728 12.544-34.304 17.749c-8.576 5.12-18.901 11.904-31.019 20.309-12.075 8.405-21.845 16.427-29.355 24.235s-15.488 17.152-23.893 28.032c-8.405 10.88-14.933 21.888-19.456 33.152-4.48 11.307-8.363 23.979-11.477 38.059-3.2 14.037-4.736 28.885-4.736 44.501 0 52.565 17.92 98.688 53.803 138.325 35.84 39.595 82.517 65.152 139.904 76.544v102.827c0 4.949 1.707 9.216 5.205 12.885 3.499 3.627 7.595 5.419 12.331 5.419h74.112c5.077 0 9.344-1.707 12.629-5.12 3.328-3.456 4.907-7.808 4.907-13.099v-100.565c20.864-2.304 41.088-6.656 60.672-13.099s35.499-12.885 47.744-19.115 23.893-13.44 34.859-21.461 18.091-13.483 21.419-16.555 6.016-5.717 8.235-8.021c6.187-6.869 7.125-14.080 2.773-21.675l-44.459-83.456c-2.944-5.675-7.125-8.789-12.629-9.131-5.077-1.152-10.069 0.213-14.805 3.968-1.109 1.152-3.755 3.456-7.979 6.869-4.224 3.456-11.349 8.448-21.419 15.189-10.069 6.656-20.736 12.757-32.128 18.304-11.349 5.504-25.003 10.496-40.875 14.848-15.915 4.352-31.573 6.613-46.891 6.613-34.731 0-63.104-8.192-85.077-24.576-21.973-16.512-32.896-37.632-32.896-63.531 0-9.941 1.536-19.072 4.651-27.435s8.533-16.256 16.213-23.765c7.68-7.424 14.933-13.696 21.675-18.859 6.741-5.12 17.024-11.093 30.763-17.749s24.789-11.861 33.195-15.445c8.405-3.627 21.248-8.832 38.443-15.744 19.413-7.637 34.176-13.611 44.459-18.005s24.107-11.093 41.685-19.968c17.579-8.96 31.36-17.024 41.429-24.235 10.069-7.253 21.419-16.768 34.005-28.544 12.629-11.861 22.357-23.936 29.099-36.309 6.741-12.331 12.544-26.923 17.323-43.691 4.608-16.853 6.997-34.731 6.997-53.76z" />
<glyph unicode="&#xe940;" glyph-name="compra" d="M0 960.128v-102.443h116.821l134.443-400.128-76.843-102.443h-1.579c-23.552-32.939-24.576-76.971-8.021-108.843s51.541-54.4 91.221-54.4h665.771v102.443h-665.728c0.085 0.256-0.512 0.853 0 1.621l76.8 100.864h481.749c20.48 0 41.301 9.941 46.421 30.421l158.464 358.485c15.36 35.84-10.581 72.021-46.421 72.021h-749.056l-22.4 67.2-11.179 35.2h-190.464zM256.085 140.715c-56.576 0-102.443-45.867-102.443-102.443s45.867-102.443 102.443-102.443 102.443 45.867 102.443 102.443c-0.043 56.576-45.867 102.443-102.443 102.443zM819.413 140.715c-56.576 0-102.443-45.867-102.443-102.443s45.867-102.443 102.443-102.443 102.443 45.867 102.443 102.443c0 56.576-45.867 102.443-102.443 102.443z" />
<glyph unicode="&#xe941;" glyph-name="recaudacion" d="M743.936 635.264c-48.043-12.032-100.907-38.016-132.267-107.221-35.413 8.661-73.557 13.397-113.109 13.397-103.424 0-187.691-31.104-245.376-85.205-8.235-7.723-41.899-54.955-60.16-47.317-78.293 20.437-38.229 103.467 21.675 59.904-12.757 76.971-118.528 47.275-118.656-27.008-0.128-75.563 94.379-71.125 83.371-107.179-8.576-27.989-12.459-58.453-12.459-90.965 0-75.733 56.277-133.333 96.811-165.632 5.76-4.608 16.597-11.904 10.539-30.635s-16.299-45.013-16.299-45.013c-6.357-16.683 1.493-34.859 18.219-41.173l61.355-22.997c16.725-6.357 34.859 1.493 41.216 18.176 0 0 8.704 20.779 15.317 38.315 12.416 32.981 19.627 6.699 104.491 6.699 88.235 0 97.28 17.408 106.411-9.557 5.931-17.579 13.44-35.413 13.44-35.413 6.357-16.683 24.491-24.533 41.216-18.176l61.355 22.997c16.725 6.315 24.576 24.491 18.219 41.173l-9.6 25.856c0 0-9.685 17.195 11.52 28.715 42.368 22.997 74.24 57.472 94.891 100.523 4.437 9.259 10.88 22.016 30.677 22.016h30.677c16.896 0 30.677 13.739 30.677 30.635v91.904c0 16.896-13.781 30.635-30.677 30.635h-30.677c-16 0-22.485 7.424-24.917 14.379-18.389 51.584-49.963 98.773-92.971 122.581 0 0-13.824 6.827-2.048-42.411-7.125 5.504-26.923 16.341-32.469 48.171-4.992 59.947 5.845 95.744 29.611 159.829zM694.827 385.621c47.147 0 85.419-38.229 85.419-85.333s-38.272-85.333-85.419-85.333-85.419 38.229-85.419 85.333 38.272 85.333 85.419 85.333zM707.883 830.549l-227.797-201.515-227.797 201.515h170.795v129.451h113.877v-129.451h170.923z" />
<glyph unicode="&#xe942;" glyph-name="pago" d="M743.936 635.264c-48.043-12.032-100.907-38.016-132.267-107.221-35.413 8.661-73.557 13.397-113.109 13.397-103.424 0-187.691-31.104-245.376-85.205-8.235-7.723-41.899-54.955-60.16-47.317-78.293 20.437-38.229 103.467 21.675 59.904-12.757 76.971-118.528 47.275-118.656-27.008-0.128-75.563 94.379-71.125 83.371-107.179-8.576-27.989-12.459-58.453-12.459-90.965 0-75.733 56.277-133.333 96.811-165.632 5.76-4.608 16.597-11.904 10.539-30.635s-16.299-45.013-16.299-45.013c-6.357-16.683 1.493-34.859 18.219-41.173l61.355-22.997c16.725-6.357 34.859 1.493 41.216 18.176 0 0 8.704 20.779 15.317 38.315 12.416 32.981 19.627 6.699 104.491 6.699 88.235 0 97.28 17.408 106.411-9.557 5.931-17.579 13.44-35.413 13.44-35.413 6.357-16.683 24.491-24.533 41.216-18.176l61.355 22.997c16.725 6.315 24.576 24.491 18.219 41.173l-9.6 25.856c0 0-9.685 17.195 11.52 28.715 42.368 22.997 74.24 57.472 94.891 100.523 4.437 9.259 10.88 22.016 30.677 22.016h30.677c16.896 0 30.677 13.739 30.677 30.635v91.904c0 16.896-13.781 30.635-30.677 30.635h-30.677c-16 0-22.485 7.424-24.917 14.379-18.389 51.584-49.963 98.773-92.971 122.581 0 0-13.824 6.827-2.048-42.411-7.125 5.504-26.923 16.341-32.469 48.171-4.992 59.947 5.845 95.744 29.611 159.829zM694.827 385.621c47.147 0 85.419-38.229 85.419-85.333s-38.272-85.333-85.419-85.333-85.419 38.229-85.419 85.333 38.272 85.333 85.419 85.333zM252.288 758.485l227.797 201.515 227.797-201.515h-170.795v-129.451h-113.877v129.451h-170.923z" />
<glyph unicode="&#xe943;" glyph-name="usuario" d="M512 960c-141.397 0-256-114.603-256-256s114.603-256 256-256 256 114.603 256 256-114.603 256-256 256zM512 320c-390.4 0-512-256-512-256v-128h1024v128c0 0-121.6 256-512 256z" />
<glyph unicode="&#xe944;" glyph-name="guardando" d="M139.648 448h-139.648l186.197-186.197 186.155 186.197h-139.605c0 154.069 125.227 279.253 279.253 279.253 47.019 0 91.691-11.648 130.347-32.597l67.968 67.968c-57.301 36.309-125.227 57.728-198.315 57.728-205.739 0-372.352-166.613-372.352-372.352zM791.253 448c0-154.069-125.227-279.253-279.253-279.253-47.019 0-91.691 11.648-130.347 32.597l-67.968-67.968c57.259-36.309 125.227-57.728 198.272-57.728 205.739 0 372.352 166.613 372.352 372.352h139.691l-186.197 186.197-186.155-186.197h139.605z" />
<glyph unicode="&#xe945;" glyph-name="sorting" d="M853.333 618.667h-682.667l341.333 341.333zM170.667 277.333h682.667l-341.333-341.333z" />
<glyph unicode="&#xe946;" glyph-name="nube" d="M1024 291.328c0 48.811-38.955 88.32-87.040 88.32-12.885 0-25.088-2.816-36.096-7.936-0.768 0-1.536 0-2.176 0 2.901 10.965 4.565 22.485 4.565 34.432 0 71.637-57.259 129.749-127.872 129.749-44.672 0-83.883-23.211-106.752-58.325-4.352 119.893-101.419 215.765-220.587 215.765-121.899 0-220.8-100.395-220.8-224.171 0-16.896 1.92-33.365 5.419-49.195-0.512 0.299-0.981 0.597-1.451 0.896-24.021 29.141-60.075 47.701-100.48 47.701-72.149 0.043-130.731-59.392-130.731-132.779 0-64.811 45.781-118.784 106.325-130.432 10.624-2.091 17.877-2.176 17.877-2.176h0.128c2.133-0.171 4.309-0.171 6.443-0.171 2.219 0 4.437 0 6.571 0.171h790.059c0 0 11.691-1.749 26.027 1.451 40.149 7.723 70.571 43.605 70.571 86.699z" />
<glyph unicode="&#xe947;" glyph-name="nube-ondas" d="M261.077 53.291c0 17.707 14.293 32 31.957 32h412.331c17.579 0 32-14.293 32-32v0c0-17.579-14.379-31.957-32-31.957h-412.331c-17.664 0-31.957 14.336-31.957 31.957v0zM298.752 176.768c0-17.664 14.336-31.957 32-31.957h336.853c17.749 0 32 14.293 32 31.957v0c0 17.664-14.293 31.957-32 31.957h-336.853c-17.664 0.043-32-14.251-32-31.957v0zM336.427 300.245c0-17.707 14.336-31.957 32-31.957h261.504c17.664 0 32 14.251 32 31.957v0c0 17.579-14.293 31.957-32 31.957h-261.504c-17.664 0-32-14.336-32-31.957v0zM1024 478.976c0 48.043-38.955 86.912-87.040 86.912-12.885 0-25.088-2.773-36.096-7.808-0.768 0-1.536 0-2.176 0 2.901 10.795 4.565 22.144 4.565 33.877 0 70.485-57.259 127.744-127.872 127.744-44.672 0-83.883-22.827-106.752-57.429-4.352 118.016-101.376 212.395-220.587 212.395-121.899 0-220.757-98.816-220.757-220.629 0-16.64 1.92-32.811 5.419-48.427-0.512 0.299-0.981 0.597-1.451 0.896-24.021 28.672-60.075 46.976-100.48 46.976-72.192 0-130.773-58.496-130.773-130.731 0-63.787 45.781-116.949 106.325-128.384 10.624-2.091 17.877-2.133 17.877-2.133h0.128c2.133-0.128 4.309-0.128 6.443-0.128 2.219 0 4.437 0 6.571 0.128h790.059c0 0 11.691-1.749 26.027 1.408 40.149 7.637 70.571 42.923 70.571 85.333z" />
<glyph unicode="&#xe948;" glyph-name="colapsar" d="M217.6 213.333l294.4 290.133 294.4-290.133 89.6 89.6-384 379.733-384-379.733 89.6-89.6z" />
<glyph unicode="&#xe949;" glyph-name="vincular" d="M512 960c-282.752 0-512-229.248-512-512s229.248-512 512-512 512 229.248 512 512-229.248 512-512 512zM607.104 311.040l-116.437-116.437c-64.128-64.128-168.405-64.128-232.533 0s-64.128 168.405 0 232.533l49.024 49.024c-0.341-26.965 3.968-53.931 13.141-79.915l-15.445-15.445c-38.827-38.485-38.827-100.992 0-139.477 38.485-38.827 100.992-38.827 139.477 0l116.096 116.096c38.827 38.485 38.827 100.992 0 139.477-13.483 12.843-13.483 33.877 0 46.72 12.843 12.843 33.877 12.843 46.72 0 64.085-64.171 64.085-168.448-0.043-232.576zM769.92 473.856l-49.024-49.024c0.341 26.965-3.968 53.931-13.141 79.616l15.445 15.787c38.827 38.485 38.827 100.992 0 139.477-38.485 38.827-100.992 38.827-139.477 0l-116.096-116.139c-38.827-38.485-38.827-100.992 0-139.477 13.483-12.843 13.483-33.877 0-46.72-12.843-12.843-33.877-12.843-46.72 0-64.128 64.128-64.128 168.405 0 232.533l116.437 116.437c64.128 64.128 168.405 64.128 232.533 0s64.171-168.363 0.043-232.491z" />
<glyph unicode="&#xe94a;" glyph-name="desvincular" d="M512 960c-282.752 0-512-229.248-512-512s229.248-512 512-512 512 229.248 512 512-229.248 512-512 512zM737.792 117.333l-160.64 160.64-86.827-86.827c-64.853-64.853-170.283-64.853-235.136 0s-64.853 170.283 0 235.136l49.536 49.536c-0.341-27.264 4.011-54.528 13.312-80.811l-15.616-15.616c-39.253-38.912-39.253-102.101 0-141.013 38.912-39.253 102.101-39.253 141.013 0l87.125 86.485-53.888 53.547c-0.341-7.979-3.669-16.299-9.643-22.613-12.971-12.971-34.261-12.971-47.232 0-34.944 35.243-51.243 81.835-48.213 127.403l-190.251 190.592 42.581 42.24 556.117-556.117-42.24-42.581zM560.853 544.085c12.971 12.971 34.261 12.971 47.232 0 45.568-45.568 59.221-110.763 40.917-168.277l-59.221 58.88c-1.664 22.613-11.307 44.885-28.928 62.208-13.653 12.928-13.653 34.219 0 47.189zM772.693 473.557l-49.536-49.536c0.341 27.264-4.011 54.528-13.312 80.469l15.616 15.957c39.253 38.912 39.253 102.101 0 141.013-38.912 39.253-102.101 39.253-141.013 0l-110.763-110.763-46.891 47.232 110.763 110.763c64.853 64.853 170.283 64.853 235.136 0s64.853-170.283 0-235.136z" />
<glyph unicode="&#xe94b;" glyph-name="banco" d="M192 533.333v-298.667h128v298.667h-128zM448 533.333v-298.667h128v298.667h-128zM106.667 21.333h810.667v128h-810.667v-128zM704 533.333v-298.667h128v298.667h-128zM512 917.333l-405.333-213.333v-85.333h810.667v85.333l-405.333 213.333z" />
<glyph unicode="&#xe94c;" glyph-name="breadcrumb-izq" d="M746.667 153.6l-290.133 294.4 290.133 294.4-89.6 89.6-379.733-384 379.733-384 89.6 89.6z" />
<glyph unicode="&#xe94d;" glyph-name="traspasar" d="M614.4 686.933c-607.573 0-614.4-682.667-614.4-682.667s68.267 273.067 614.4 273.067v-204.8l409.6 409.6-409.6 409.6v-204.8z" />
<glyph unicode="&#xe94e;" glyph-name="bloquear" d="M800 618.667h-48v97.536c0 134.571-107.52 243.797-240 243.797s-240-109.227-240-243.797v-97.536h-48c-52.779 0-96-43.904-96-97.536v-487.637c0-53.589 43.221-97.493 96-97.493h576c52.821 0 96 43.904 96 97.536v487.595c0 53.632-43.179 97.536-96 97.536zM512 179.797c-52.821 0-96 43.904-96 97.536s43.179 97.536 96 97.536 96-43.904 96-97.536-43.179-97.536-96-97.536zM660.821 618.667h-297.643v97.536c0 83.371 66.731 151.168 148.821 151.168s148.821-67.797 148.821-151.168v-97.536z" />
<glyph unicode="&#xe94f;" glyph-name="desbloquear" d="M778.411 959.744c-130.048 0-235.221-110.635-235.221-243.541v-97.536h-436.779c-52.779 0-96-43.904-96-97.536v-487.637c0-53.589 43.221-97.493 96-97.493h576c52.779 0 96 43.904 96 97.536v487.595c-0.043 53.632-43.264 97.536-96.043 97.536h-48v97.536c0 81.707 64.128 149.077 144 149.077 79.829 0 144-67.371 144-149.077v-65.536c0-17.664 14.336-32 32-32h27.221c17.664 0 32 14.336 32 32v65.536c0.043 132.949-104.747 243.541-235.179 243.541zM394.368 179.797c-52.779 0-96 43.904-96 97.536s43.221 97.536 96 97.536 96-43.904 96-97.536-43.221-97.536-96-97.536z" />
<glyph unicode="&#xe950;" glyph-name="terceros" d="M313.088 761.088c-86.443 0-156.544-70.101-156.544-156.544s70.059-156.544 156.544-156.544 156.544 70.101 156.544 156.544-70.101 156.544-156.544 156.544zM1024 213.205v-78.251h-319.573v95.872l-7.552 15.957c-2.048 4.309-29.312 59.008-95.189 110.293 31.915 7.765 68.011 12.672 109.269 12.672 238.677 0 313.045-156.544 313.045-156.544zM554.411 604.544c0 86.443 70.101 156.544 156.544 156.544s156.544-70.101 156.544-156.544c0-86.443-70.101-156.544-156.544-156.544-86.485 0-156.544 70.101-156.544 156.544zM626.133 213.205v-78.251h-626.133v78.251c0 0 74.368 156.544 313.088 156.544 86.571 0 151.296-20.693 198.912-46.933 83.712-46.123 114.133-109.611 114.133-109.611z" />
<glyph unicode="&#xe951;" glyph-name="sorting-asc" d="M426.667 490.667v-85.333h341.333v85.333h-341.333zM426.667 746.667v-85.333h170.667v85.333h-170.667zM426.667 234.667v-85.333h512v85.333h-512zM256 661.333h106.667l-149.333 149.333-149.333-149.333h106.667v-554.667h85.333v554.667z" />
<glyph unicode="&#xe952;" glyph-name="sorting-desc" d="M426.667 405.333v85.333h341.333v-85.333h-341.333zM426.667 149.333v85.333h170.667v-85.333h-170.667zM426.667 661.333v85.333h512v-85.333h-512zM256 234.667h106.667l-149.333-149.333-149.333 149.333h106.667v554.667h85.333v-554.667z" />
<glyph unicode="&#xe953;" glyph-name="descargar-ultimo" d="M85.333 874.667v-597.333h384v-85.333h-85.333l128-160 128 160h-85.333v85.333h384v597.333h-85.333v-512h-682.667v512h-85.333zM512 649.003c-88.363 0-149.333-45.056-149.333-109.525v-48.811h298.667v48.811c0 64.469-62.208 109.525-149.333 109.525zM605.355 782.165c0-51.072-41.771-92.501-93.355-92.501s-93.355 41.387-93.355 92.501 41.813 92.501 93.355 92.501 93.355-41.387 93.355-92.501z" />
<glyph unicode="&#xe954;" glyph-name="procesos" d="M853.333 874.667l-87.979-87.979c-73.515 55.552-160.725 83.755-249.344 85.333-35.883 0.64-72.619-2.389-107.989-10.667l20.011-84.011c95.36 22.229 194.688 4.992 275.968-52.011l-64-64h213.333v213.333zM85.333 789.333l86.656-86.656c-79.317-104.832-105.131-239.787-72.021-363.989l82.688 22.656c-25.557 95.744-8.875 198.955 49.323 281.344l66.688-66.688v213.333h-213.333zM923.989 557.312l-82.688-22.656c25.301-94.933 9.301-197.76-48-282.667l-67.968 68.011v-213.333h213.333l-84.011 84.011c78.336 107.349 102.4 242.645 69.333 366.635zM170.667 234.667v-213.333l85.333 86.656h1.323c104.832-79.317 239.787-105.131 363.989-72.021l-22.656 82.688c-95.744-25.557-198.955-8.875-281.344 49.323l66.688 66.688h-213.333z" />
<glyph unicode="&#xe955;" glyph-name="comprobante" d="M213.333 874.667v-597.333h85.333v512h554.667v-640c0-23.661-19.006-42.667-42.667-42.667-25.6 0-42.667 17.067-42.667 42.667v85.333h-640v-128c0-46.933 38.4-85.333 85.333-85.333h597.333c70.206 0 128 57.794 128 128v725.333h-725.333zM384 661.333v-85.333h85.333v85.333h-85.333zM512 661.333v-85.333h256v85.333h-256zM384 448v-85.333h85.333v85.333h-85.333zM512 448v-85.333h256v85.333h-256z" />
<glyph unicode="&#xe956;" glyph-name="internet-explorer" d="M772.864 368.853h248.491c1.877 17.237 2.645 34.859 2.645 52.821 0 84.437-22.656 163.669-62.251 231.851 40.917 108.757 39.467 201.045-15.317 256.213-52.096 51.883-191.872 43.435-349.909-26.539-11.691 0.896-23.509 1.323-35.413 1.323-216.875 0-398.891-149.248-449.152-350.379 68.053 87.125 139.605 150.272 235.221 196.267-8.661-8.107-59.392-58.539-67.925-67.072-252.16-252.075-331.691-581.376-246.101-666.965 65.024-65.024 182.912-54.059 318.293 12.245 62.933-32.043 134.229-50.133 209.707-50.133 203.307 0 375.595 130.859 437.973 313.088h-250.368c-34.475-63.573-101.845-106.837-179.157-106.837s-144.725 43.264-179.157 106.837c-15.317 28.715-24.107 61.653-24.107 96.469v0.768l406.528 0.043zM366.635 490.965c5.76 102.229 90.752 183.765 194.475 183.765 103.765 0 188.757-81.536 194.475-183.765h-388.949zM944.171 858.368c35.285-35.669 34.389-101.291 4.224-183.168-51.712 78.848-126.848 140.971-215.552 176.469 94.848 40.619 171.989 46.037 211.328 6.699zM98.389 12.629c-45.013 45.056-31.445 139.605 26.539 253.525 36.096-101.333 106.496-186.411 197.205-241.195-100.437-45.653-182.656-53.376-223.744-12.331z" />
<glyph unicode="&#xe957;" glyph-name="chrome" d="M258.261 513.408l-146.517 253.781c93.781 117.461 238.208 192.725 400.256 192.725 187.435 0 351.317-100.736 440.533-250.965h-417.792c-14.293 0.256-15.104 0.256-22.741 0.256-121.899 0-224.597-82.901-253.739-195.797zM695.296 634.923h293.461c22.741-57.899 35.243-121.003 35.243-186.965 0-280.789-226.091-508.757-506.197-511.872l209.408 362.667c29.483 42.368 46.805 93.824 46.805 149.248-0.043 73.088-30.208 139.349-78.72 186.923zM325.973 447.957c0 102.571 83.456 185.984 185.984 185.984 102.571 0 185.984-83.413 185.984-185.984s-83.456-185.984-185.984-185.984-185.984 83.413-185.984 185.984zM582.144 195.499l-146.56-253.867c-246.528 36.907-435.584 249.515-435.584 506.325 0 91.221 23.893 176.853 65.707 251.008l209.024-362.027c41.856-89.131 132.437-150.997 237.269-150.997 24.277 0 47.829 3.371 70.144 9.557z" />
<glyph unicode="&#xe958;" glyph-name="opera" d="M512 43.776c165.845 0 215.595 241.792 215.595 404.224 0 186.965-63.915 404.224-215.595 404.224-151.552 0-215.595-230.144-215.595-404.224-0.043-160.939 52.181-404.267 215.595-404.224v0zM512 960c278.571 0 485.035-202.795 485.035-508.672 0-270.123-195.584-515.328-485.035-515.328-286.72 0-485.035 241.877-485.035 512-0.085 303.488 203.989 512 485.035 512z" />
<glyph unicode="&#xe959;" glyph-name="edge" d="M341.12 356.011c0-23.595 3.541-45.099 10.752-64.384 7.68-19.029 17.621-36.053 30.379-50.901 12.715-14.891 27.605-27.605 45.099-38.315 16.853-10.752 35.285-19.627 54.912-26.539 19.456-7.040 39.851-12.288 60.587-15.659 20.992-3.371 41.387-5.077 62.080-5.077 26.069 0 50.304 2.005 73.301 6.144 22.997 4.309 45.397 9.984 67.456 17.152s43.392 15.787 64.725 25.6c21.461 9.813 43.221 20.565 65.621 32.512v-207.915c-25.003-12.245-49.536-22.528-74.069-31.445-24.533-8.576-49.067-16.085-74.069-22.059-25.003-6.144-50.304-10.752-76.203-13.483s-52.523-4.309-80.128-4.309c-36.821 0-72.363 4.309-106.581 12.715-34.176 8.448-66.219 20.565-96.299 36.48-30.037 15.957-57.515 35.285-82.475 57.941-25.131 22.699-46.464 48.299-64.384 76.672s-31.744 59.477-41.685 92.928c-9.685 33.451-14.592 69.035-14.592 106.752 0 40.32 5.504 78.677 16.555 115.328 11.179 36.779 27.008 70.229 47.829 100.907 20.693 30.677 45.995 57.941 75.904 81.707s63.488 43.221 100.907 58.283c-20.395-20.395-36.352-44.459-47.531-72.533-11.52-27.947-18.731-55.979-21.931-84.053h349.312c0 35.285-3.541 65.92-10.752 92.288s-18.688 48.299-34.816 65.621c-15.957 17.493-36.48 30.677-61.781 39.253-25.301 8.747-55.808 13.184-91.52 13.184-42.155 0-84.352-6.144-126.507-18.859-42.197-12.245-82.219-29.867-120.235-52.096-38.016-22.571-73.003-49.067-104.875-79.445-31.872-30.677-58.709-63.616-80.512-99.371 4.608 41.387 13.781 81.28 26.539 119.125s29.611 73.131 49.835 105.813c20.224 32.213 43.989 61.653 71.125 88.021s57.173 49.067 90.453 67.456 68.523 33.28 106.88 43.221c38.357 8.789 79.147 13.995 122.069 13.995 25.131 0 50.133-2.304 75.136-6.741 25.003-4.608 49.365-10.752 73.131-18.688 47.232-16.256 89.387-38.955 126.507-67.755 37.12-29.141 68.224-62.251 93.525-100.139s44.501-79.744 57.685-125.312 19.925-92.928 19.925-142.123v-121.899c0 0-627.285 0-627.285 0z" />
<glyph unicode="&#xe95a;" glyph-name="safari" d="M512 896c-25.6 0-46.933 0-72.533-4.267 0 0 0 0 0 4.267 12.8 8.533 21.333 25.6 17.067 38.4s-21.333 25.6-46.933 25.6c-4.267 0-8.533 0-12.8 0-34.133-8.533-51.2-29.867-46.933-51.2 4.267-12.8 12.8-21.333 29.867-25.6 0 0 0 0 0-4.267-200.533-59.733-345.6-243.2-345.6-465.067 0-264.533 213.333-477.867 477.867-477.867s477.867 213.333 477.867 477.867-213.333 482.133-477.867 482.133zM366.933 913.067c-4.267 12.8 8.533 25.6 29.867 29.867 4.267 0 8.533 0 12.8 0 17.067 0 29.867-8.533 29.867-17.067s-4.267-17.067-12.8-21.333c-4.267 4.267-12.8 8.533-21.333 4.267-8.533 0-17.067-4.267-21.333-12.8-8.533 4.267-17.067 8.533-17.067 17.067zM768 157.867c-42.667-42.667-98.133-76.8-153.6-93.867l-42.667 68.267-12.8-81.067c-17.067-4.267-34.133-4.267-46.933-4.267-98.133 0-187.733 38.4-256 106.667-42.667 42.667-76.8 98.133-93.867 153.6l68.267 42.667-81.067 12.8c0 17.067-4.267 34.133-4.267 46.933 0 98.133 38.4 187.733 106.667 256 42.667 42.667 98.133 76.8 153.6 93.867l42.667-68.267 12.8 81.067c17.067 4.267 34.133 4.267 46.933 4.267 98.133 0 187.733-38.4 256-106.667 42.667-42.667 76.8-98.133 93.867-153.6l-68.267-42.667 81.067-12.8c4.267-17.067 4.267-34.133 4.267-46.933 0-93.867-38.4-187.733-106.667-256zM759.467 665.6l-196.267-149.333c-12.8 8.533-29.867 12.8-46.933 12.8l-51.2 106.667-4.267-119.467c-12.8-8.533-25.6-17.067-34.133-25.6l-64 21.333 46.933-46.933c-4.267-12.8-8.533-29.867-8.533-42.667l-106.667-51.2 119.467-4.267c0 0 0 0 0-4.267l-149.333-196.267 196.267 149.333c12.8-8.533 29.867-12.8 46.933-12.8l51.2-106.667 4.267 119.467c12.8 8.533 25.6 17.067 34.133 25.6l64-21.333-46.933 46.933c4.267 12.8 8.533 29.867 8.533 42.667l106.667 51.2-119.467 4.267c0 0 0 0 0 4.267l149.333 196.267zM512 516.267v0 0 0zM490.667 512c8.533 0 12.8 4.267 21.333 4.267 4.267 0 8.533 0 12.8 0v0 0c8.533 0 17.067-4.267 25.6-8.533l-72.533-59.733-55.467-72.533c-4.267 4.267-4.267 12.8-4.267 17.067-12.8 55.467 21.333 106.667 72.533 119.467zM563.2 332.8v0 0c-8.533-4.267-17.067-8.533-29.867-12.8-8.533 0-12.8 0-21.333 0-4.267 0-8.533 0-12.8 0v0 0c-8.533 0-17.067 4.267-25.6 8.533l72.533 55.467 55.467 72.533c4.267-4.267 4.267-12.8 4.267-17.067 8.533-42.667-8.533-85.333-42.667-106.667z" />
<glyph unicode="&#xe95b;" glyph-name="firefox" d="M27.008 455.083c-8.149-40.32-5.547-104.917-5.547-104.917l24.235 51.285c0 0 0-163.968 155.776-308.992 155.776-145.067 435.157-185.6 647.595-2.816 212.181 182.827 171.861 515.84 171.861 515.84l-24.235-53.675c0 0-10.539 99.371-26.88 153.216-16.085 53.675-50.859 88.619-50.859 88.619l16.085-72.491c0 0-56.405 68.651-110.464 93.525-8.405 4.053-16.768 7.765-25.088 11.392-71.040 63.488-164.395 102.315-267.179 102.315-145.451 0-272.512-77.44-343.083-193.067-3.413 2.133-23.552 14.976-33.237 39.509-10.923 26.795-16.299 56.405-16.299 56.405-67.2-64.384-51.072-171.861-51.072-171.861s-26.837-27.051-53.632-69.931c-26.837-42.965-34.987-120.832-34.987-120.832l45.696 48.299c0-0.043-10.709-21.461-18.688-61.824zM532.352 875.605c83.072 0 159.019-28.928 218.88-77.227l-76.843-12.843c0 0 77.909-24.277 136.96-69.76 14.763-11.605 26.795-25.728 36.693-40.747 12.843-27.477 22.528-57.088 27.861-87.936l-37.504 29.184c0 0 13.312-16.085 16.085-59.008 2.56-42.965-11.008-121.088-11.008-121.088l-34.731 40.363c0 0 8.149-67.2-5.376-126.379-13.525-58.795-42.88-83.072-42.88-83.072l5.163 69.76c0 0-40.149-88.619-153.045-123.605-112.811-34.773-220.331 64.597-220.331 64.597 72.491-18.901 118.229 18.859 155.947 37.504 37.589 18.901 56.235 21.461 72.576 21.461 16.085 0 0 37.504-29.611 53.845-29.611 16.085-64.597 7.979-134.357-10.923-69.931-18.688-113.067 40.363-110.251 80.683 2.731 40.32 67.115 16.085 67.115 16.085l-2.603 80.725c0 0 107.52 67.115 99.371 83.2-7.979 16.085-45.483 10.752-77.909 21.461-32.171 10.752-51.072 40.363-51.072 40.363s-5.333 21.504 5.376 40.149c10.709 18.859 48.299 45.909 48.299 45.909s-24.064 2.603-64.384-10.752c-40.32-13.483-69.931-37.717-69.931-37.717s-7.723 2.56-40.789 5.163c64.128 79.573 162.261 130.603 272.299 130.603z" />
<glyph unicode="&#xe95c;" glyph-name="vincular-alt" d="M668.8 213.163l-196.139-196.139c-108.032-108.032-283.648-108.032-391.68 0s-108.032 283.648 0 391.68l82.56 82.56c-0.555-45.397 6.699-90.837 22.144-134.613l-26.027-26.027c-65.408-64.811-65.408-170.112 0-234.923 64.811-65.408 170.112-65.408 234.923 0l195.541 195.541c65.408 64.811 65.408 170.112 0 234.923-22.699 21.632-22.699 57.045 0 78.677 21.632 21.632 57.045 21.632 78.677 0 107.989-108.032 107.989-283.691 0-391.68zM943.019 487.381l-82.56-82.56c0.555 45.397-6.699 90.837-22.144 134.101l26.027 26.581c65.408 64.811 65.408 170.112 0 234.923-64.811 65.408-170.112 65.408-234.923 0l-195.541-195.627c-65.408-64.811-65.408-170.112 0-234.923 22.699-21.632 22.699-57.045 0-78.677-21.632-21.632-57.045-21.632-78.677 0-108.032 108.032-108.032 283.648 0 391.68l196.139 196.139c108.032 108.032 283.648 108.032 391.68 0s108.032-283.605 0-391.637z" />
<glyph unicode="&#xe95d;" glyph-name="espera" d="M85.333 960v-153.6h106.667v-102.4c0-106.667 55.467-200.533 145.067-256-85.333-55.467-145.067-149.333-145.067-256v-102.4h-106.667v-153.6h853.333v153.6h-106.667v102.4c0 106.667-55.467 200.533-145.067 256 85.333 55.467 145.067 149.333 145.067 256v102.4h106.667v153.6h-853.333zM298.667 806.4h426.667v-102.4c0-93.867-68.267-183.467-162.133-204.8v-102.4c93.867-21.333 162.133-110.933 162.133-204.8v-102.4h-426.667v102.4c0 93.867 68.267 183.467 162.133 204.8v102.4c-93.867 21.333-162.133 110.933-162.133 204.8v102.4zM349.867 704c0-85.333 72.533-153.6 162.133-153.6s162.133 68.267 162.133 153.6h-324.267z" />
<glyph unicode="&#xe95e;" glyph-name="movimientos-contables" d="M448 874.667c-27.819 0-51.157-17.835-59.989-42.667h-174.677c-47.147 0-85.333-38.187-85.333-85.333v-597.333c0-47.147 38.187-85.333 85.333-85.333h298.667c0-23.509 19.157-42.667 42.667-42.667h298.667c23.509 0 42.667 19.157 42.667 42.667v426.667c0 23.509-19.157 42.667-42.667 42.667h-85.333v213.333c0 47.147-38.187 85.333-85.333 85.333h-174.677c-8.832 24.832-32.171 42.667-59.989 42.667zM448 832c11.819 0 21.333-9.515 21.333-21.333s-9.515-21.333-21.333-21.333-21.333 9.515-21.333 21.333 9.515 21.333 21.333 21.333zM234.667 746.667h106.667v-42.667h213.333v42.667h106.667c11.819 0 21.333-9.515 21.333-21.333v-192h-128c-23.509 0-42.667-19.157-42.667-42.667v-341.333h-277.333c-11.819 0-21.333 9.515-21.333 21.333v554.667c0 11.819 9.515 21.333 21.333 21.333zM256 661.333v-170.667h85.333v170.667h-85.333zM384 618.667v-128h85.333v128h-85.333zM597.333 448h213.333v-85.333h-213.333v85.333zM384 405.333c-47.147 0-85.333-38.187-85.333-85.333s38.187-85.333 85.333-85.333 85.333 38.187 85.333 85.333h-85.333v85.333zM597.333 320h85.333v-85.333h-85.333v85.333zM725.333 320h85.333v-85.333h-85.333v85.333zM597.333 192h85.333v-85.333h-85.333v85.333zM725.333 192h85.333v-85.333h-85.333v85.333z" />
<glyph unicode="&#xe95f;" glyph-name="factura-chile" d="M263.936 959.787c-145.621 0-263.936-117.845-263.936-263.467v-760.32h760.363c145.621 0 263.637 118.059 263.637 263.723v760.277c0-0.085-760.064-0.213-760.064-0.213zM448.469 574.635h-104.619v-82.987h88.107c27.349 0 40.96-19.328 40.96-38.656 0-19.925-13.611-39.808-40.96-39.808h-88.107v-123.947c0-28.459-18.219-44.373-42.667-44.373s-42.624 15.915-42.624 44.373v319.488c0 23.296 15.872 44.373 44.331 44.373h145.536c25.003 0 38.101-19.328 38.101-39.253 0.043-19.328-12.459-39.211-38.059-39.211zM652.117 313.088c42.112 0 71.125 32.981 92.715 32.981 17.621 0 33.493-17.621 33.493-35.243 0-35.285-72.789-69.376-133.632-69.376-92.117 0-153.515 67.115-153.515 157.483 0 83.029 60.288 158.635 146.731 158.635 88.661 0 147.243-80.768 147.243-148.992 0-24.448-10.795-36.395-35.797-36.395h-174.549c5.717-40.32 39.253-59.093 77.312-59.093zM703.36 426.795h-130.219c3.925 34.688 28.459 62.549 64.853 62.549 38.016 0 60.8-26.709 65.365-62.549z" />
<glyph unicode="&#xe960;" glyph-name="factura-colombia" d="M263.936 959.787c-145.621 0-263.936-117.888-263.936-263.424v-760.363h760.405c145.579 0 263.595 118.059 263.595 263.723v760.277c0-0.085-760.064-0.213-760.064-0.213zM458.709 575.573h-106.027v-84.096h89.301c27.648 0 41.515-19.584 41.515-39.211 0-20.181-13.867-40.32-41.515-40.32h-89.301v-125.611c0-28.8-18.432-44.928-43.221-44.928-24.747 0-43.221 16.128-43.221 44.928v323.797h0.043c0 23.595 16.128 44.928 44.928 44.928h147.499c25.344 0 38.571-19.584 38.571-39.765 0.043-19.541-12.629-39.723-38.571-39.723zM660.309 313.941c20.693 0 51.84 17.28 61.653 17.28 19.541 0 35.712-16.683 35.712-36.309 0-42.667-71.467-57.045-101.419-57.045-89.301 0-148.651 73.173-148.651 159.616 0 84.139 61.056 160.725 148.651 160.725 32.853 0 101.419-12.075 101.419-52.437 0-17.195-12.117-39.723-31.659-39.723-20.736 0-39.211 16.128-65.707 16.128-47.275 0-69.717-42.069-69.717-84.693 0-40.875 24.747-83.541 69.717-83.541z" />
<glyph unicode="&#xe961;" glyph-name="contabilidad" d="M263.936 959.787c-145.621 0-263.936-117.845-263.936-263.467v-760.32h760.363c145.621 0 263.637 118.059 263.637 263.68v760.32c0-0.085-760.064-0.213-760.064-0.213zM385.28 241.408c-115.413 0-195.584 91.563-195.584 209.28 0 118.229 79.616 209.237 195.584 209.237 41.515 0 122.24-13.653 122.24-63.659 0-20.48-14.208-38.101-35.243-38.101-23.296 0-39.211 19.883-86.997 19.883-70.485 0-106.88-59.648-106.88-129.067 0-67.669 36.992-125.653 106.88-125.653 47.787 0 67.115 23.893 90.411 23.893 25.6 0 37.547-25.6 37.547-38.656 0-54.571-85.845-67.157-127.957-67.157zM685.696 241.408c-88.107 0-146.688 72.235-146.688 157.483 0 83.072 60.288 158.677 146.688 158.677 86.443 0 146.688-75.605 146.688-158.677 0-85.248-58.539-157.483-146.688-157.483zM750.507 398.933c0-39.211-20.48-82.432-64.853-82.432-44.331 0-64.811 43.221-64.811 82.432 0 39.296 19.883 83.627 64.811 83.627s64.853-44.373 64.853-83.627z" />
<glyph unicode="&#xe962;" glyph-name="remuneraciones" d="M370.56 473.344h-58.581v100.608h58.581c31.232 0 52.864-17.621 52.864-50.005 0-31.829-21.589-50.603-52.864-50.603zM669.824 488.661c-36.395 0-60.843-27.819-64.853-62.549h130.219c-4.523 35.84-27.264 62.549-65.365 62.549zM1024 959.317v-760.277c0-145.664-118.016-263.68-263.637-263.68h-760.363v760.32c0 145.579 118.315 263.467 263.936 263.467 0-0.043 760.064 0.085 760.064 0.171zM514.987 287.957c0 8.021-3.413 16.512-11.392 25.045l-96.64 103.424c57.984 9.131 105.173 44.928 105.173 107.52 0 89.216-54.016 128.512-141.568 128.512h-100.053c-28.416 0-43.776-17.067-43.776-44.373v-319.488c0-28.459 18.176-44.373 42.624-44.373s42.624 15.957 42.624 44.373v123.349h1.152l126.208-152.96c9.131-10.795 22.741-14.763 32.981-14.763 25.045-0.085 42.667 21.547 42.667 43.733zM606.72 371.541h174.507c25.045 0 35.84 11.947 35.84 36.395 0 68.224-58.539 148.949-147.243 148.949-86.443 0-146.688-75.605-146.688-158.592 0-90.368 61.397-157.483 153.515-157.483 60.843 0 133.589 34.091 133.589 69.376 0 17.621-15.915 35.243-33.536 35.243-21.632 0-50.603-32.981-92.715-32.981-38.059-0.085-71.595 18.731-77.269 59.093z" />
<glyph unicode="&#xe963;" glyph-name="admin-comercial" d="M381.909 571.221l52.907-164.907h-108.032l54.016 164.907h1.109zM1024 960v-760.277c0-145.664-118.016-263.68-263.637-263.68h-760.363v760.32c0 145.579 118.315 263.467 263.936 263.467 0-0.043 760.064 0.085 760.064 0.171zM558.165 282.411c0 3.925-1.152 11.947-4.565 20.992l-111.445 309.333c-9.643 27.264-30.677 47.189-60.8 47.189-29.013 0-51.157-20.992-60.843-47.147l-114.261-309.333c-1.152-2.816-4.011-9.6-4.011-18.731 0-22.784 19.328-39.851 42.112-39.851 23.296 0 35.243 12.544 40.875 30.165l17.067 52.907h158.123l17.067-53.461c5.675-17.067 17.621-29.611 41.515-29.611 20.949 0 39.168 15.36 39.168 37.547zM652.757 398.976c0 42.069 22.187 83.541 68.821 83.541 26.112 0 44.331-15.872 64.768-15.872 19.328 0 31.275 22.187 31.275 39.211 0 39.765-67.669 51.712-100.053 51.712-86.443 0-146.731-75.605-146.731-158.592 0-85.291 58.624-157.483 146.731-157.483 29.568 0 100.053 14.208 100.053 56.277 0 19.328-15.872 35.84-35.243 35.84-9.685 0-40.405-17.067-60.843-17.067-44.331-0.043-68.779 42.027-68.779 82.432z" />
<glyph unicode="&#xe964;" glyph-name="control-existencias" d="M750.848 426.795h-130.219c3.925 34.731 28.459 62.549 64.853 62.549 38.016 0 60.8-26.752 65.365-62.549zM1024 960v-760.277c0-145.664-118.016-263.68-263.637-263.68h-760.363v760.32c0 145.579 118.315 263.467 263.936 263.467 0-0.043 760.064 0.085 760.064 0.171zM518.699 308.565c0 13.056-11.947 38.656-37.547 38.656-23.296 0-42.624-23.893-90.368-23.893-69.931 0-106.88 57.984-106.88 125.611 0 69.376 36.395 129.109 106.88 129.109 47.787 0 63.659-19.925 86.997-19.925 20.992 0 35.243 17.664 35.243 38.101 0 50.048-80.725 63.659-122.24 63.659-116.011 0-195.627-90.965-195.627-209.237 0-117.675 80.171-209.237 195.627-209.237 42.027 0.043 127.915 12.544 127.915 67.157zM622.336 372.224h174.549c25.003 0 35.797 11.947 35.797 36.395 0 68.224-58.539 148.949-147.243 148.949-86.443 0-146.731-75.605-146.731-158.592 0-90.368 61.397-157.483 153.515-157.483 60.843 0 133.589 34.091 133.589 69.376 0 17.621-15.872 35.243-33.493 35.243-21.589 0-50.603-32.981-92.715-32.981-38.016-0.085-71.595 18.688-77.269 59.093z" />
<glyph unicode="&#xe965;" glyph-name="activo-fijo" d="M263.936 959.787c-145.621 0-263.936-117.845-263.936-263.467v-760.32h760.363c145.621 0 263.637 118.059 263.637 263.723v760.277c0-0.085-760.064-0.213-760.064-0.213zM552.235 244.864c-23.893 0-35.84 12.501-41.515 29.568l-17.067 53.461h-158.080l-17.067-52.907c-5.675-17.621-17.621-30.123-40.875-30.123-22.784 0-42.112 17.067-42.112 39.765 0 9.131 2.816 15.957 4.011 18.773l114.261 309.291c9.685 26.155 31.829 47.232 60.843 47.232 30.123 0 51.157-19.883 60.843-47.232l111.445-309.291c3.371-9.131 4.565-17.067 4.565-21.035-0.043-22.187-18.261-37.504-39.253-37.504zM742.315 479.104h-25.557v-188.715c0-27.349-17.067-45.483-40.96-45.483s-40.96 18.176-40.96 45.483v188.715h-18.176c-22.229 0-35.84 13.653-35.84 35.84 0 20.48 15.317 35.84 35.84 35.84h18.176v42.027c0 60.288 35.84 93.269 85.845 93.269 29.013 0 56.875-8.576 56.875-36.992 0-23.851-10.837-34.645-33.536-34.645-13.653 0-27.264 0-27.264-30.123v-33.536h25.557c24.448 0 41.557-9.685 41.557-35.84 0-25.557-17.707-35.84-41.557-35.84zM414.080 571.221l-54.016-164.907h107.989l-52.864 164.907z" />
<glyph unicode="&#xe966;" glyph-name="nomina" d="M263.936 959.787c-145.621 0-263.936-117.845-263.936-263.467v-760.32h760.363c145.621 0 263.637 118.059 263.637 263.723v760.277c0-0.085-760.064-0.213-760.064-0.213zM441.685 286.379c0-28.8-18.432-44.971-43.179-44.971-10.965 0-28.203 8.661-36.267 19.029l-182.443 240.597h-1.195v-214.656c0-28.8-18.432-44.971-43.179-44.971s-43.179 16.171-43.179 44.971v326.955c0 28.8 18.432 44.885 43.179 44.885 10.923 0 28.8-8.619 36.267-18.987l182.485-243.541h1.152v217.6c0 28.8 18.432 44.885 43.179 44.885s43.179-16.128 43.179-44.885v-326.912zM930.859 287.488c0-27.648-17.28-46.080-41.472-46.080-24.149 0-41.429 18.432-41.429 46.080v144.469c0 33.408-18.432 57.003-48.341 57.003-30.507 0-48.939-23.595-48.939-57.003v-144.469c0-27.648-17.28-46.080-41.472-46.080-24.149 0-41.429 18.432-41.429 46.080v144.469c0 33.408-18.432 57.003-48.341 57.003-33.963 0-48.939-23.595-48.939-57.003v-144.469c0-27.648-17.28-46.080-41.472-46.080-24.149 0-41.429 18.432-41.429 46.080v221.056c0 27.605 17.28 46.037 41.429 46.037 21.333 0 35.115-11.477 38.016-31.019 20.181 21.845 46.635 34.517 77.141 34.517 34.517 0 63.872-14.421 85.76-42.027 23.040 26.496 59.307 42.027 87.509 42.027 67.328 0 113.408-39.168 113.408-111.701v-158.891z" />
<glyph unicode="&#xe967;" glyph-name="gestion" d="M763.093 426.795h-130.219c3.925 34.688 28.459 62.549 64.853 62.549 38.016 0.043 60.8-26.709 65.365-62.549zM1024 960v-760.277c0-145.664-118.016-263.68-263.637-263.68h-760.363v760.277c0 145.579 118.315 263.467 263.936 263.467 0 0 760.064 0.128 760.064 0.213zM535.424 433.664c0 36.395-14.208 54.571-50.048 54.571h-96.683c-21.632 0-39.765-14.763-39.765-38.656 0-23.296 16.512-39.765 39.765-39.765h57.984c0-64.853-51.712-89.813-96.683-89.813-72.149 0-106.88 61.397-106.88 130.773 0 68.779 35.84 130.773 106.88 130.773 74.496 0 82.432-41.557 121.131-41.557 19.883 0 35.285 15.403 35.285 39.851 0 39.765-70.485 80.171-156.373 80.171-115.925 0-195.541-91.008-195.541-209.237 0-117.717 80.171-209.28 195.541-209.28 113.707-0.085 185.387 82.389 185.387 192.171zM634.581 372.181h174.549c25.003 0 35.797 11.947 35.797 36.395 0 68.224-58.539 148.992-147.243 148.992-86.443 0-146.731-75.605-146.731-158.677 0-90.368 61.397-157.483 153.515-157.483 60.843 0 133.632 34.091 133.632 69.376 0 17.621-15.872 35.285-33.493 35.285-21.632 0-50.603-32.981-92.715-32.981-38.101 0-71.637 18.773-77.312 59.093z" />
<glyph unicode="&#xe968;" glyph-name="perfilamiento" d="M427.691 517.973c0-34.603-23.040-61.099-59.349-61.099h-58.752v122.197h58.795c36.224 0 59.307-26.539 59.307-61.099zM671.872 489.173c-36.864 0-61.653-28.245-65.707-63.36h131.968c-4.651 36.267-27.648 63.36-66.261 63.36zM1024 960v-760.277c0-145.664-118.016-263.723-263.595-263.723h-760.405v760.363c0 145.579 118.315 263.424 263.936 263.424 0 0 760.064 0.128 760.064 0.213zM517.589 517.376c0 82.347-62.805 137.685-147.499 137.685h-101.973c-28.8 0-44.971-17.835-44.971-44.928v0-323.84c0-28.757 18.475-44.928 43.221-44.928 24.789 0 43.221 16.171 43.221 44.928v94.507h63.957c78.933 0 144.043 52.437 144.043 136.576zM607.915 370.432v0l176.896 0.043c25.344 0 36.309 12.117 36.309 36.907 0 69.12-59.349 150.955-149.248 150.955-87.595 0-148.651-76.629-148.651-160.768 0-91.605 62.251-159.573 155.563-159.573 61.611 0 135.339 34.56 135.339 70.272 0 17.835-16.085 35.712-34.005 35.712-21.888 0-51.243-33.408-93.909-33.408-38.528-0.043-72.533 18.944-78.293 59.861z" />
<glyph unicode="&#xe969;" glyph-name="mi-nubox-1" d="M263.936 959.787c-145.621 0-263.936-117.888-263.936-263.467v-760.32h760.405c145.579 0 263.595 118.101 263.595 263.723v760.277c0-0.128-760.064-0.171-760.064-0.213zM839.381 408.747c-10.283-2.261-18.645-1.024-18.645-1.024h-566.827c-1.536-0.085-3.115-0.085-4.693-0.085-1.536 0-3.115 0-4.651 0.085h-0.085c0 0-5.205 0.043-12.843 1.536-43.477 8.235-76.288 46.421-76.288 92.203 0 51.84 42.027 93.867 93.824 93.867 28.971 0 54.827-13.141 72.064-33.749 0.341-0.213 0.683-0.427 1.024-0.64-2.475 11.179-3.84 22.827-3.84 34.773 0 87.467 70.955 158.379 158.421 158.379 85.504 0 155.136-67.755 158.251-152.491 16.427 24.789 44.544 41.216 76.587 41.216 50.645 0 91.733-41.088 91.733-91.691 0-8.448-1.195-16.555-3.243-24.32 0.427 0 0.981 0 1.536 0 7.893 3.627 16.683 5.589 25.899 5.589 34.517 0 62.464-27.947 62.464-62.421 0-30.464-21.845-55.765-50.688-61.227z" />
<glyph unicode="&#xe96a;" glyph-name="mi-nubox-2" d="M342.741 164.352c0 12.715 10.24 22.955 22.912 22.955h295.851c12.587 0 22.955-10.283 22.955-22.955v0c0-12.629-10.325-22.955-22.955-22.955h-295.851c-12.672 0-22.912 10.325-22.912 22.955v0zM369.707 253.013c0 12.672 10.283 22.955 22.997 22.955h241.664c12.757 0 22.997-10.283 22.997-22.955v0c0-12.672-10.24-22.955-22.997-22.955h-241.664c-12.672 0-22.997 10.283-22.997 22.955v0zM396.757 341.675c0 12.629 10.283 22.955 22.955 22.955h187.605c12.672 0 22.955-10.283 22.955-22.955v0c0-12.715-10.283-22.955-22.955-22.955h-187.605c-12.629 0.043-22.955 10.24-22.955 22.955v0z" />
<glyph unicode="&#xe96b;" glyph-name="borrar-permanente" d="M538.283 707.328c58.283 36.736 112.427 72.192 167.851 105.472 92.032 55.296 187.349 104.277 287.744 142.848 5.973 2.304 12.971 4.224 19.072 3.371 9.088-1.28 13.781-8.491 9.387-16.469-1.621-3.115-3.755-6.016-6.656-9.301-4.181-4.779-8.832-9.131-13.781-13.141-13.739-11.221-27.52-21.291-42.496-31.104-121.344-79.445-233.813-169.771-336.853-271.787-2.859-2.816-5.589-5.76-8.32-8.704-0.427-0.427-0.427-1.237-0.896-2.603 12.8-15.787 26.027-31.701 38.827-48 123.947-157.824 232.661-325.12 316.843-507.648 13.44-29.141 24.747-59.264 36.992-88.917 1.152-2.773 2.987-5.931 2.475-8.533-0.725-3.797-2.432-8.619-5.333-10.325-2.176-1.28-8.192 0.427-10.155 2.773-7.253 8.747-14.037 17.963-20.096 27.563-120.064 191.104-276.181 349.696-447.445 494.592-7.168 6.059-14.763 11.563-22.229 17.28-0.469 0.341-1.28 0.299-2.475 0.555-0.939-0.853-2.304-1.792-3.328-3.029-75.349-87.765-151.637-174.933-212.309-273.835-34.261-55.851-64.213-114.347-96.512-171.435-12.331-21.803-24.875-43.648-39.083-64.299-13.909-20.224-32.811-34.261-58.667-36.395-22.912-1.92-40.491 8.064-54.229 25.045-21.035 25.984-31.531 56.32-34.816 89.387-5.504 55.808 10.965 106.581 35.84 155.264 41.088 80.512 98.005 149.376 160.725 213.717 56.661 58.155 116.352 113.109 179.371 164.395 3.627 2.944 7.040 6.144 11.605 10.112-4.437 3.712-8.277 7.211-12.373 10.283-84.949 63.744-175.573 118.272-270.677 165.589-20.651 10.283-40.917 21.717-60.117 34.432-11.819 7.808-22.997 17.792-31.616 29.013-22.869 29.781-18.261 65.067 10.155 89.6 19.243 16.597 42.155 25.728 66.56 31.488 48.939 11.563 95.915 3.541 141.739-14.592 61.824-24.448 116.693-60.629 166.997-103.211 43.477-36.779 84.608-76.288 126.549-114.859 4.864-4.437 8.405-10.368 11.733-14.592z" />
<glyph unicode="&#xe96c;" glyph-name="chat-off" d="M1023.701 138.667h-176v58.667l99.456 117.333h-99.456v58.667h176v-58.667l-99.157-117.333h99.157v-58.667zM789.035 37.333h-176v58.667l99.456 117.333h-99.456v58.667h176v-58.667l-99.157-117.333h99.157v-58.667zM554.368-64h-176v58.667l99.456 117.333h-99.456v58.667h176v-58.667l-99.157-117.333h99.157v-58.667z" />
<glyph unicode="&#xe96d;" glyph-name="porcentaje" d="M341.333 746.667c-70.485 0-128-57.515-128-128s57.515-128 128-128 128 57.515 128 128-57.515 128-128 128zM646.656 727.979l-341.333-512 72.021-48 341.333 512-72.021 48zM341.333 661.333c23.509 0 42.667-19.157 42.667-42.667s-19.157-42.667-42.667-42.667-42.667 19.157-42.667 42.667 19.157 42.667 42.667 42.667zM682.667 405.333c-70.485 0-128-57.515-128-128s57.515-128 128-128 128 57.515 128 128-57.515 128-128 128zM682.667 320c23.509 0 42.667-19.157 42.667-42.667s-19.157-42.667-42.667-42.667-42.667 19.157-42.667 42.667 19.157 42.667 42.667 42.667z" />
<glyph unicode="&#xe96e;" glyph-name="adjuntos" d="M672 832c-44.512 0-88.256-17.248-121.984-51.008l-300-300c-95.136-95.136-95.136-249.888 0-344.992s249.888-95.136 344.992 0l200 200-44.992 44.992-200-200c-70.624-70.624-184.384-70.624-255.008 0s-70.624 184.384 0 255.008l300 300c43.008 43.008 112 43.008 155.008 0s43.008-112 0-155.008l-300-300c-15.36-15.36-39.616-15.36-55.008 0s-15.36 39.616 0 55.008l275.008 275.008-45.024 44.992-275.008-275.008c-39.872-39.872-39.872-105.12 0-144.992s105.12-39.872 144.992 0l300 300c67.488 67.488 67.488 177.504 0 244.992-33.728 33.76-78.464 51.008-122.976 51.008z" />
<glyph unicode="&#xe96f;" d="M1007.147 318.72c10.709-30.037 16.853-62.293 16.853-96.043 0-158.336-128.341-286.677-286.677-286.677-33.579 0-65.664 6.059-95.616 16.683-41.429-10.837-84.864-16.683-129.707-16.683-282.752 0-512 229.248-512 512s229.248 512 512 512 512-229.248 512-512c0-44.715-6.101-87.936-16.853-129.28z" />
<glyph unicode="&#xe970;" d="M512 960c-282.752 0-512-229.248-512-512s229.248-512 512-512 512 229.248 512 512-229.248 512-512 512z" />
<glyph unicode="&#xe971;" d="M512 960c-282.752 0-512-229.248-512-512s229.248-512 512-512 512 229.248 512 512-229.248 512-512 512z" />
<glyph unicode="&#xe972;" d="M980.352 554.197l-362.112 361.984c-29.397 28.8-67.84 43.819-106.24 43.819s-76.843-15.019-106.24-43.819l-159.019-160.981-42.027-41.984-161.067-159.019c-58.197-58.795-58.197-153.6 0-212.395l362.112-361.984c29.397-28.8 67.84-43.819 106.24-43.819s76.843 15.019 106.24 43.819l159.061 160.981 42.027 41.984 161.067 159.019c58.155 58.795 58.155 153.6-0.043 212.395z" />
<glyph unicode="&#xe973;" d="M407.979 192c0 17.323 1.749 34.219 5.035 50.603-5.76 2.731-11.733 4.608-17.323 7.893l-2.987 1.749c-104.661 63.36-140.203 200.064-77.312 307.029 65.28 107.563 205.184 141.397 314.581 79.275l-62.336-110.464 216.789 56.363-59.392 228.48-59.093-108.629c-144.811 82.816-329.088 34.901-415.232-107.947l-1.749-3.072c-83.669-142.251-33.408-325.589 108.971-409.045 16.853-9.643 34.347-17.195 52.139-23.296-1.323 10.155-2.091 20.523-2.091 31.061zM737.323 466.688c-134.571 0-244.011-109.44-244.011-244.011s109.483-244.011 244.011-244.011 244.011 109.44 244.011 244.011c0 134.528-109.44 244.011-244.011 244.011zM779.989 64h-85.333v85.333h85.333v-85.333zM779.989 192h-85.333v190.208h85.333v-190.208z" />
<glyph unicode="&#xe974;" d="M747.221 520.875l-249.472-249.472c-33.152-33.152-87.424-33.152-120.576 0s-33.152 87.424 0 120.576l228.693 228.693 37.419-37.419-228.693-228.693c-12.8-12.8-12.8-32.981 0-45.739 12.8-12.8 32.981-12.8 45.739 0l249.472 249.472c35.755 35.755 35.755 93.141 0 128.896s-93.141 35.755-128.896 0l-249.515-249.429c-58.709-58.709-58.709-153.301 0-212.053 58.709-58.709 153.301-58.709 212.053 0l166.315 166.315 37.419-37.419-166.315-166.315c-79.104-79.104-207.787-79.104-286.891 0s-79.104 207.787 0 286.891l249.472 249.472c28.032 28.032 64.469 42.411 101.461 42.411s74.197-14.336 102.272-42.411c56.149-56.149 56.149-147.627 0.043-203.776z" />
<glyph unicode="&#xe975;" d="M428.416 482.304c20.181-7.68 134.784-38.613 134.784-138.24 0-103.552-109.355-117.035-128-118.741v-58.923h-51.2v59.221c-28.885 3.2-128 19.371-128 145.536h89.984c0-80.768 59.605-78.592 68.139-78.592 9.771 0 59.136 1.323 59.136 50.859 0 49.109-42.88 56.021-97.707 78.891-7.851 3.285-102.443 29.397-102.443 124.587 0 89.088 77.611 111.915 110.891 117.675v65.024h51.2v-64.299c30.379-4.523 128-15.744 128-140.544h-89.899c0 64.341-39.424 73.643-56.661 73.643-9.344 0-53.547 0.469-53.547-51.797 0-44.757 65.323-64.299 65.323-64.299zM679.637 288v115.157h-73.771c0 37.803 0 78.976 0 115.2h73.771v115.243l192-172.8-192-172.8z" />
<glyph unicode="&#xe976;" d="M501.973 376.747l189.568-189.525-122.283-122.24c-14.165-14.677-33.579-22.229-53.291-23.125-1.323-0.043-2.645-0.085-3.968-0.085-21.077 0-42.112 7.552-57.259 23.211l-325.888 325.803c-31.872 31.872-31.872 82.603 0 114.475l122.283 122.24 250.837-250.752zM895.147 505.259l-325.888 325.803c-16.213 15.659-36.736 23.765-57.259 23.765s-41.045-8.107-57.259-23.765l-120.96-120.917 440.448-440.277 120.96 120.917c31.829 31.872 31.829 82.645-0.043 114.475z" />
<glyph unicode="&#xe977;" d="M329.131 155.435v-73.173c0-60.416 49.28-109.739 109.739-109.739h10.155c12.672-21.675 35.968-36.523 62.976-36.523s50.304 14.848 63.019 36.565h10.155c60.416 0 109.739 49.28 109.739 109.739v73.131h-365.781z" />
<glyph unicode="&#xe978;" d="M877.739 594.347c0 99.712-39.424 193.024-111.019 262.571-71.595 69.419-165.461 106.283-266.027 102.869-195.413-5.845-354.432-170.283-354.432-366.592 0-106.581 55.552-189.739 104.576-263.168 20.309-30.336 39.424-59.733 53.888-89.088h170.667v301.653l-62.379 62.464c-14.293 14.293-14.293 37.419 0 51.712s37.419 14.293 51.712 0l47.275-47.317 47.275 47.275c14.293 14.293 37.419 14.293 51.712 0s14.293-37.419 0-51.712l-62.421-62.421v-301.653h170.24c14.379 29.099 33.493 58.325 53.76 88.363 49.323 73.856 105.173 157.44 105.173 265.045z" />
<glyph unicode="&#xe979;" d="M824.149 470.699c0 19.797 0 39.595 0 59.392 0 7.595 2.56 10.155 9.984 10.155 13.568 0.043 26.368 0.043 39.936 0 6.528 0 9.557-3.115 9.557-9.557 0.085-37.205-0.128-74.453 0.341-111.659 0.213-15.573 6.784-28.416 21.803-34.731 15.317-6.443 30.464-5.675 44.117 4.693 7.936 6.016 11.648 14.72 12.971 24.32 0.811 5.888 0.939 11.947 0.939 17.92 0.085 32.853 0.043 65.749 0.043 98.603 0 8.192 2.219 10.411 10.197 10.411 13.568 0 27.093 0.043 40.661 0 6.101 0 8.917-2.816 8.917-8.875 0.043-38.144 0.768-76.288-0.171-114.389-1.28-51.883-34.944-88.448-86.955-93.099-26.325-2.347-51.285 1.451-73.515 16.683-24.235 16.597-36.48 40.576-38.613 69.248-1.451 20.139-0.213 40.576-0.213 60.885-0.256 0 0.256 0 0 0zM760.747 353.877c-20.352-19.712-45.397-28.373-73.429-28.8-13.013-0.213-26.027-0.256-39.040 0.085-4.907 0.128-6.144-1.579-6.059-6.272 0.299-11.989 0.171-23.979 0.085-35.968-0.171-23.253-15.445-38.912-38.699-39.637-3.968-0.128-7.936-0.043-11.947-0.043-6.741 0.043-9.429 2.731-9.429 9.6 0 46.507 0 92.971 0 139.477 0 45.952 0 91.904 0 137.856 0 7.808 2.261 10.155 9.899 10.112 35.243-0.171 70.571 1.024 105.728-0.896 51.371-2.859 90.795-39.339 95.104-92.715 2.901-35.755-6.059-67.499-32.213-92.8zM729.344 448.597c-4.139 20.48-17.067 32.555-37.973 34.091-14.933 1.109-29.952 0.555-44.928 0.853-3.968 0.085-4.181-2.219-4.181-5.291 0.085-15.232 0.043-30.464 0.043-45.739 0-15.232 0.085-30.464-0.085-45.739-0.043-3.925 1.024-5.504 5.163-5.419 12.459 0.213 24.917-0.128 37.376 0.128 21.077 0.427 36.693 12.16 42.837 32.043 3.627 11.605 4.139 23.339 1.749 35.072zM475.136 334.037c0-6.315 2.603-8.96 8.832-9.003 13.909-0.043 27.819-0.043 41.771-0.043 6.528 0 9.472 3.029 9.472 9.6 0 65.365 0.043 130.731 0 196.096 0 6.571-2.987 9.557-9.557 9.557-13.568 0.043-27.093 0.043-40.661 0-7.68-0.043-9.856-2.304-9.856-10.155 0-32.512 0-64.981 0-97.493 0-32.853-0.043-65.707 0-98.56zM283.733 530.859c0 23.083 0.171 46.123-0.085 69.205-0.171 20.352-10.453 33.707-29.739 38.101-6.912 1.579-14.293 1.536-21.504 1.835-6.187 0.213-8.875-2.645-8.875-8.875 0-98.816 0-197.632 0-296.448 0-6.869 2.688-9.6 9.429-9.643 13.397-0.043 26.752-0.043 40.149-0.043 8.277 0 10.581 2.261 10.581 10.624 0 33.621 0 67.2 0.043 100.821 0 11.307 2.133 22.187 9.173 31.317 11.733 15.232 27.819 18.261 45.355 14.251 15.787-3.627 23.296-15.445 26.155-30.72 0.555-3.029 1.067-6.101 1.067-9.173 0.128-35.584 0.213-71.211 0.256-106.795 0-7.381 2.731-10.283 9.941-10.283 13.568-0.043 27.136-0.043 40.704 0 7.040 0 9.643 2.731 9.643 9.941 0 34.347 0.171 68.651-0.085 102.997-0.085 11.051-0.683 22.187-2.176 33.109-2.261 16.555-7.168 32.512-18.859 44.971-23.851 25.429-54.485 29.184-86.485 23.936-11.691-1.92-22.528-9.045-34.475-14.123-0.085 1.195-0.213 3.072-0.213 4.992zM60.075 471.125c0 1.963 0 3.925 0 5.888 0 40.491 0.043 81.024-0.043 121.515-0.043 21.12-9.6 34.56-28.843 39.381-7.253 1.835-15.019 1.749-22.571 2.091-5.973 0.256-8.619-2.56-8.619-8.491 0-99.2 0-198.357 0-297.557 0-5.973 2.944-8.917 8.96-8.96 13.568-0.043 27.136-0.043 40.704-0.043 7.893 0 10.411 2.56 10.411 10.325 0 21.248 0 42.496 0 63.744 0 1.792 0.256 3.584 0.512 6.869 2.645-2.987 4.267-4.693 5.76-6.443 19.072-22.315 38.229-44.544 57.173-66.987 4.437-5.248 9.387-7.765 16.384-7.637 17.152 0.341 34.347 0.384 51.541-0.043 6.315-0.171 10.155 2.304 13.568 7.637-34.773 35.285-69.547 70.613-104.747 106.283 32.725 31.701 64.896 62.891 97.024 93.995-3.285 5.632-7.211 7.765-13.227 7.637-17.365-0.384-34.731-0.341-52.053-0.043-6.528 0.213-11.349-2.091-15.573-6.955-12.501-14.592-25.173-29.013-37.803-43.477-5.675-6.485-11.349-12.971-17.067-19.413-0.512 0.213-1.024 0.427-1.493 0.683z" />
<glyph unicode="&#xe97a;" d="M545.493 611.371c0-22.881-18.453-41.429-41.216-41.429s-41.216 18.549-41.216 41.429c0 22.881 18.453 41.429 41.216 41.429s41.216-18.549 41.216-41.429z" />
<glyph unicode="&#xe97b;" glyph-name="calculadora" d="M256 874.667c-47 0-85.333-38.333-85.333-85.333v-682.667c0-47 38.333-85.333 85.333-85.333h512c47 0 85.333 38.333 85.333 85.333v682.667c0 47-38.333 85.333-85.333 85.333zM256 789.333h512v-170.667h-512zM640 746.667v-85.333h85.333v85.333zM298.667 533.333h85.333v-85.333h-85.333zM469.333 533.333h85.333v-85.333h-85.333zM640 533.333h85.333v-85.333h-85.333zM298.667 362.667h85.333v-85.333h-85.333zM469.333 362.667h85.333v-85.333h-85.333zM640 362.667h85.333v-85.333h-85.333zM298.667 192h85.333v-85.333h-85.333zM469.333 192h85.333v-85.333h-85.333zM640 192h85.333v-85.333h-85.333z" />
<glyph unicode="&#xe97c;" d="M1024 448c0-129.237-47.872-247.296-126.891-337.408-28.245-32.256-60.501-60.885-95.957-85.205s-74.155-44.288-115.243-59.136c-54.315-19.584-112.853-30.251-173.909-30.251-282.752 0-512 229.248-512 512s229.248 512 512 512 512-229.248 512-512z" />
<glyph unicode="&#xe97d;" d="M804.011 375.125l-88.064-23.040c-28.16-61.739-83.584-107.392-150.699-125.013-55.851-14.037-116.565-7.595-169.515 23.424l-2.987 1.749c-104.661 63.36-140.203 200.064-77.312 307.029 65.28 107.563 205.184 141.397 314.581 79.275l-62.336-110.464 216.789 56.363-59.392 228.48-59.093-108.629c-144.811 82.816-329.088 34.901-415.232-107.947l-1.792-3.072c-83.669-142.251-33.408-325.589 108.971-409.045 69.163-39.552 147.755-48.64 220.544-32.213v0c0.213 0.043 15.488 3.541 22.784 5.76-0.128 0.171 0.128-0.171 0 0 98.731 28.843 178.261 114.432 202.752 217.344z" />
<glyph unicode="&#xe97e;" d="M64.919 287.816l285.103 285.103 312.225-312.225-285.103-285.103-312.225 312.225z" />
<glyph unicode="&#xe97f;" d="M641.792 928.341c-37.248 0-74.325-15.019-102.571-43.264l-496.725-496.725c-56.704-56.704-56.704-148.437 0-205.099l209.92-211.499c9.429-9.216 22.016-14.208 35.243-14.421h733.867v128h-399.189l359.125 359.125c56.704 56.704 56.704 148.437 0 205.099l-237.141 235.563c-28.203 28.203-65.28 43.221-102.528 43.221zM345.344 546.987l296.448-296.448-165.248-165.205h-191.872l-170.027 170.027c-15.232 15.232-15.232 45.653 0 60.885l230.699 230.741z" />
<glyph unicode="&#xe980;" d="M996.224 286.507v179.115h-152.917v-60.843h57.6v-63.829c-8.917-3.755-21.632-5.589-34.901-5.589-71.979 0-123.221 38.443-123.221 101.717 0 75.307 65.579 104.619 145.493 104.619 23.211 0 59.264-5.12 89.984-20.907l7.851 70.272c-35.968 11.947-87.296 14.293-111.616 14.293-135.467 0-233.344-46.592-233.344-168.235 0-122.027 113.707-165.333 212.139-165.333 33.92 0 80.512 0.853 142.933 14.72zM523.093 599.595h-120.789l-140.373-322.176h100.096l29.099 68.395h138.752l27.563-68.395h108.032l-142.379 322.176zM413.952 406.656l47.403 126.507h1.067l44.203-126.507h-92.672zM153.984 599.595h-117.76v-322.176h98.645v112.171h38.229c92.288 0 146.944 38.656 146.944 104.064 0.043 72.789-52.992 105.941-166.059 105.941zM160.384 450.432h-25.472v88.405h25.472c34.005 0 61.013-10.709 61.013-43.733 0-34.005-27.008-44.672-61.013-44.672z" />
</font>
</defs>
</svg>
